<svg width="134" height="50" viewBox="0 0 134 50" fill="none" xmlns="http://www.w3.org/2000/svg">
<rect width="133.077" height="50" rx="25" fill="#0F051C"/>
<path d="M121.539 25.7142L98.4616 9.23071V42.1977L121.539 25.7142Z" fill="#FFAC00"/>
<path d="M75.3847 25.7142L98.4616 42.1977V9.23071L75.3847 25.7142Z" fill="#FFAC00"/>
<path d="M87.2529 25.7142C87.2529 31.9047 92.2712 36.923 98.4616 36.923C104.652 36.923 109.67 31.9047 109.67 25.7142C109.67 19.5238 104.652 14.5054 98.4616 14.5054C92.2712 14.5054 87.2529 19.5238 87.2529 25.7142Z" fill="#0F051C"/>
<path d="M44.8684 19.0181L44.1212 19.4807H45H53.0769H53.3269V19.2307V14.2307V13.7819L52.9453 14.0181L44.8684 19.0181ZM45 30.5191H44.1212L44.8684 30.9817L52.9453 35.9817L53.3269 36.2179L53.3269 35.7691L53.3269 30.7691L53.3269 30.5191H53.0769H49.2307H45ZM23.5845 30.9868L24.4119 30.5191H23.4615H14.6154H14.3654V30.7691V35.7691V36.1976L14.7384 35.9868L23.5845 30.9868ZM23.4615 19.8653H24.353L23.5915 19.4017L14.7454 14.0171L14.3654 13.7858V14.2307V19.6153V19.8653H14.6154H23.4615ZM50.8978 11.7527L51.6718 11.2883H50.7692H39.2307H38.9807V11.5383V18.4614V18.903L39.3594 18.6758L50.8978 11.7527ZM50.7692 38.7114L51.6718 38.7114L50.8978 38.2471L39.3594 31.324L38.9807 31.0968V31.5383V35.7691V38.4614V38.7114H39.2307L50.7692 38.7114ZM16.7924 38.2483L16.0368 38.7114L16.9231 38.7114L28.8461 38.7114H29.0961V38.4614V31.1537V30.7073L28.7155 30.9406L16.7924 38.2483ZM16.9231 11.2883H16.0205L16.7944 11.7527L28.3329 18.6758L28.7115 18.903V18.4614V11.5383V11.2883H28.4615H16.9231ZM36.2078 38.7114H36.4578V38.4614V27.9422L53.0769 27.9422H53.3269L53.3269 27.6922L53.3269 22.3076V22.0576H53.0769H36.4578V11.5383V11.2883H36.2078H31.4845H31.2345V11.5383V22.0576H14.6154H14.3654V22.3076V27.6922V27.9422H14.6154L31.2345 27.9422V38.4614V38.7114H31.4845H36.2078Z" stroke="#FFAC00" stroke-width="0.5"/>
</svg>
