<svg width="733" height="290" viewBox="0 0 733 290" fill="none" xmlns="http://www.w3.org/2000/svg">
<rect x="0.5" y="0.5" width="732" height="289" rx="4.5" stroke="#9747FF" stroke-dasharray="10 5"/>
<path d="M613.849 211.791L646.401 234.169C646.401 234.169 629.909 204.925 623.395 184.496C616.478 162.807 613.762 147 613.762 147C613.762 147 610.72 162.841 602.986 184.523C595.703 204.938 580 234.452 580 234.452L613.826 195.52" fill="#FFAC00"/>
<path d="M422.151 170.66L389.599 148.282C389.599 148.282 406.091 177.527 412.605 197.956C419.522 219.645 422.238 235.452 422.238 235.452C422.238 235.452 425.28 219.611 433.014 197.929C440.297 177.514 456 148 456 148L422.174 186.931" fill="#FFAC00"/>
<path d="M264.34 201.151L286.718 168.599C286.718 168.599 257.473 185.091 237.044 191.605C215.355 198.522 199.548 201.238 199.548 201.238C199.548 201.238 215.389 204.28 237.071 212.014C257.486 219.297 287 235 287 235L248.069 201.174" fill="#FFAC00"/>
<path d="M53.6604 202.849L31.2823 235.401C31.2823 235.401 60.527 218.909 80.9557 212.395C102.645 205.478 118.452 202.762 118.452 202.762C118.452 202.762 102.611 199.72 80.9288 191.986C60.5136 184.703 31 169 31 169L69.9313 202.826" fill="#FFAC00"/>
<path d="M613.849 104.34L646.401 126.718C646.401 126.718 629.909 97.473 623.395 77.0444C616.478 55.3554 613.762 39.5482 613.762 39.5482C613.762 39.5482 610.72 55.389 602.986 77.0713C595.703 97.4864 580 127 580 127L613.826 88.0687" fill="#0F051C"/>
<path d="M422.552 62.6604L390 40.2823C390 40.2823 406.493 69.527 413.007 89.9556C419.924 111.645 422.639 127.452 422.639 127.452C422.639 127.452 425.681 111.611 433.415 89.9287C440.698 69.5136 456.401 40 456.401 40L422.576 78.9313" fill="#0F051C"/>
<path d="M263.791 93.1506L286.169 60.5986C286.169 60.5986 256.925 77.0914 236.496 83.6052C214.807 90.5223 199 93.238 199 93.238C199 93.238 214.841 96.2798 236.523 104.014C256.938 111.297 286.452 127 286.452 127L247.52 93.1742" fill="#0F051C"/>
<path d="M53.6604 94.8494L31.2823 127.401C31.2823 127.401 60.527 110.909 80.9557 104.395C102.645 97.4777 118.452 94.762 118.452 94.762C118.452 94.762 102.611 91.7202 80.9288 83.9864C60.5136 76.7029 31 61 31 61L69.9313 94.8258" fill="#0F051C"/>
</svg>
