<svg width="44" height="57" viewBox="0 0 44 57" fill="none" xmlns="http://www.w3.org/2000/svg">
<path fill-rule="evenodd" clip-rule="evenodd" d="M41.5922 27.8398C42.2096 27.4962 42.393 26.693 41.986 26.1153L36.28 18.017C36.0571 17.7007 35.6945 17.5126 35.3076 17.5126H8.70671C8.3198 17.5126 7.95708 17.7007 7.73424 18.017L2.02263 26.1232C1.6148 26.702 1.79974 27.5067 2.41937 27.8496L2.63783 27.9704L12.8872 33.5008C13.2867 33.7163 13.7741 33.6859 14.1435 33.422L20.9619 28.5517C21.5824 28.1084 22.4159 28.1084 23.0364 28.5517L29.8546 33.4218C30.2241 33.6856 30.7114 33.7163 31.1111 33.5008L41.3557 27.9716L41.5922 27.8398ZM44 31.6354C44 31.1639 43.4935 30.8662 43.0816 31.0956L43.0611 31.1068L32.7357 36.6795C32.3507 36.8872 32.1109 37.289 32.1109 37.7263V54.9859C32.1109 55.6428 32.6436 56.1755 33.3005 56.1755H42.2156C42.6888 56.1755 43.1428 55.9876 43.4773 55.6528C43.812 55.3183 44 54.8643 44 54.3911V31.6354ZM27.3524 56.1755C28.0095 56.1755 28.542 55.6428 28.542 54.9859V37.4824C28.542 37.0982 28.3566 36.7375 28.044 36.5143L22.6907 32.6904C22.2769 32.3951 21.7214 32.3951 21.3076 32.6904L15.9543 36.5143C15.6417 36.7375 15.4562 37.0982 15.4562 37.4824V54.9859C15.4562 55.6428 15.9888 56.1755 16.6458 56.1755H27.3524ZM10.6977 56.1755C11.3547 56.1755 11.8873 55.6428 11.8873 54.9859V37.7266C11.8873 37.2893 11.6474 36.8872 11.2626 36.6795L0.935047 31.1068L0.918821 31.098C0.918845 31.098 0.918845 31.098 0.918821 31.098L0.580038 30.9105C0.319534 30.7665 0 30.955 0 31.2526V54.3911C0 55.3766 0.798906 56.1755 1.78444 56.1755H10.6977ZM25.4109 2.59069L32.089 12.0689C32.6443 12.857 32.0806 13.9437 31.1166 13.9437H12.8977C11.9336 13.9437 11.3699 12.857 11.9252 12.0689L18.6034 2.59069C20.2622 0.236701 23.7523 0.236694 25.4109 2.59069Z" fill="#FFAC00"/>
</svg>
