<svg width="44" height="57" viewBox="0 0 44 57" fill="none" xmlns="http://www.w3.org/2000/svg">
<path fill-rule="evenodd" clip-rule="evenodd" d="M41.5922 27.8394C42.2096 27.4959 42.3931 26.6926 41.986 26.115L36.28 18.0166C36.0571 17.7003 35.6945 17.5122 35.3076 17.5122H8.70671C8.3198 17.5122 7.95708 17.7003 7.73424 18.0166L2.02263 26.1228C1.6148 26.7017 1.79974 27.5063 2.41937 27.8492L2.63783 27.9701L12.8872 33.5004C13.2867 33.716 13.7741 33.6855 14.1435 33.4216L20.9619 28.5513C21.5824 28.1081 22.4159 28.1081 23.0364 28.5513L29.8546 33.4214C30.2241 33.6853 30.7114 33.716 31.1111 33.5004L41.3557 27.9713L41.5922 27.8394ZM44 31.6351C44 31.1635 43.4935 30.8659 43.0816 31.0952L43.0611 31.1064L32.7357 36.6791C32.3507 36.8868 32.1109 37.2886 32.1109 37.726V54.9855C32.1109 55.6425 32.6436 56.1752 33.3005 56.1752H42.2156C42.6888 56.1752 43.1427 55.9872 43.4773 55.6524C43.812 55.3179 44 54.864 44 54.3907V31.6351ZM27.3524 56.1752C28.0095 56.1752 28.542 55.6425 28.542 54.9855V37.4821C28.542 37.0978 28.3566 36.7371 28.044 36.514L22.6907 32.69C22.2769 32.3948 21.7214 32.3948 21.3076 32.69L15.9543 36.514C15.6417 36.7371 15.4562 37.0978 15.4562 37.4821V54.9855C15.4562 55.6425 15.9888 56.1752 16.6458 56.1752H27.3524ZM10.6977 56.1752C11.3547 56.1752 11.8873 55.6425 11.8873 54.9855V37.7262C11.8873 37.2889 11.6474 36.8868 11.2626 36.6791L0.935047 31.1064L0.918821 31.0976C0.918845 31.0976 0.918845 31.0976 0.918821 31.0976L0.580038 30.9101C0.319534 30.7662 0 30.9546 0 31.2522V54.3907C0 55.3762 0.798906 56.1752 1.78444 56.1752H10.6977ZM25.4109 2.59032L32.089 12.0685C32.6443 12.8566 32.0806 13.9433 31.1166 13.9433H12.8977C11.9336 13.9433 11.3699 12.8566 11.9252 12.0685L18.6034 2.59032C20.2622 0.236335 23.7523 0.236328 25.4109 2.59032Z" fill="#FFAC00"/>
</svg>
