<svg width="58" height="40" viewBox="0 0 58 40" fill="none" xmlns="http://www.w3.org/2000/svg">
<path d="M28.7357 12.2189C28.7977 10.1823 28.2115 8.17869 27.0615 6.49672C25.9301 5.12665 24.4861 4.04838 22.8511 3.35264C21.2162 2.6569 19.438 2.36404 17.6662 2.49871H1.24938C0.918023 2.49871 0.600239 2.63034 0.365935 2.86464C0.131631 3.09895 0 3.41673 0 3.74809V38.7307C0 39.0621 0.131631 39.3798 0.365935 39.6142C0.600239 39.8485 0.918023 39.9801 1.24938 39.9801H16.4668C18.2034 39.9895 19.9365 39.822 21.6392 39.4803C23.1498 39.1423 24.5612 38.4579 25.7622 37.4813C26.7755 36.6668 27.6237 35.666 28.2609 34.5328C29.3528 32.7343 29.9157 30.6645 29.8851 28.5608C29.942 26.6303 29.448 24.7235 28.4609 23.0635C27.4519 21.6232 26.0064 20.5457 24.3379 19.99C25.3983 19.468 26.3484 18.7469 27.1365 17.8661C28.3176 16.2306 28.8839 14.2308 28.7357 12.2189ZM7.49627 11.2444C7.49627 10.913 7.6279 10.5952 7.86221 10.3609C8.09651 10.1266 8.4143 9.99498 8.74565 9.99498H17.4913C18.4854 9.99498 19.4387 10.3899 20.1416 11.0928C20.8445 11.7957 21.2394 12.7491 21.2394 13.7431C21.2394 14.7372 20.8445 15.6905 20.1416 16.3935C19.4387 17.0964 18.4854 17.4913 17.4913 17.4913H8.74565C8.4143 17.4913 8.09651 17.3596 7.86221 17.1253C7.6279 16.891 7.49627 16.5732 7.49627 16.2419V11.2444ZM22.4888 27.4863C22.4888 28.8117 21.9623 30.0829 21.0251 31.0201C20.0879 31.9573 18.8167 32.4838 17.4913 32.4838H8.74565C8.4143 32.4838 8.09651 32.3522 7.86221 32.1179C7.6279 31.8836 7.49627 31.5658 7.49627 31.2344V23.7382C7.49627 23.5741 7.52859 23.4116 7.59138 23.26C7.65416 23.1085 7.74619 22.9707 7.86221 22.8547C7.97822 22.7387 8.11595 22.6467 8.26754 22.5839C8.41912 22.5211 8.58158 22.4888 8.74565 22.4888H17.4913C18.1476 22.4888 18.7974 22.618 19.4038 22.8692C20.0101 23.1203 20.561 23.4885 21.0251 23.9525C21.4891 24.4166 21.8573 24.9675 22.1084 25.5738C22.3596 26.1802 22.4888 26.83 22.4888 27.4863Z" fill="#FFAC00"/>
<path d="M38.7308 0H51.2246C51.2246 0 52.474 4.2894e-07 52.474 1.24938V3.74814C52.474 3.74814 52.474 4.99752 51.2246 4.99752H38.7308C38.7308 4.99752 37.4814 4.99752 37.4814 3.74814V1.24938C37.4814 1.24938 37.4814 0 38.7308 0Z" fill="#FFAC00"/>
<path d="M56.2222 27.4864C56.5482 27.4884 56.862 27.3628 57.0968 27.1366C57.2175 27.0203 57.313 26.8804 57.3775 26.7257C57.442 26.571 57.474 26.4046 57.4716 26.237C57.492 24.8592 57.4169 23.4815 57.2467 22.1141C56.9693 20.1122 56.2432 18.1988 55.1227 16.5169C54.0162 14.7647 52.4288 13.3681 50.55 12.4939C48.8226 11.6282 46.9094 11.1992 44.9778 11.2445C41.2835 11.1349 37.6941 12.481 34.9828 14.9926C32.3574 17.955 31.01 21.8353 31.2346 25.7873C31.046 27.787 31.3122 29.8035 32.0132 31.6859C32.7142 33.5682 33.8319 35.2676 35.2826 36.6569C38.0308 38.856 41.4583 40.0309 44.9778 39.9802C46.8674 40.0833 48.7575 39.7847 50.5234 39.1042C52.2893 38.4237 53.8909 37.3767 55.2227 36.0322C55.6975 35.4824 56.1222 34.9577 56.4971 34.433C56.6248 34.244 56.6984 34.0238 56.7098 33.796C56.7213 33.5682 56.6702 33.3417 56.5621 33.1409C56.4539 32.9401 56.2929 32.7727 56.0965 32.6569C55.9 32.5411 55.6756 32.4813 55.4476 32.4839H50.3251C50.0001 32.4871 49.6881 32.6119 49.4506 32.8338L49.3006 32.9837C47.9592 33.8592 46.3786 34.2959 44.7779 34.2331C43.4305 34.2754 42.1005 33.919 40.9548 33.2086C40.2542 32.7251 39.6676 32.0945 39.236 31.3607C38.8044 30.627 38.5382 29.8079 38.456 28.9607C38.4202 28.7803 38.4264 28.594 38.4741 28.4164C38.5217 28.2388 38.6096 28.0744 38.7309 27.9362C38.8459 27.7955 38.9907 27.6821 39.155 27.6043C39.3192 27.5265 39.4987 27.4862 39.6804 27.4864H56.2222ZM39.9053 22.4889C39.7447 22.4858 39.5868 22.4468 39.4433 22.3747C39.2997 22.3025 39.1742 22.1991 39.0759 22.0721C38.9776 21.945 38.9091 21.7975 38.8753 21.6405C38.8415 21.4834 38.8434 21.3208 38.8808 21.1646C39.1901 19.7782 39.9627 18.5387 41.071 17.6504C42.1794 16.7621 43.5574 16.278 44.9778 16.278C46.3982 16.278 47.7762 16.7621 48.8845 17.6504C49.9929 18.5387 50.7654 19.7782 51.0748 21.1646C51.1121 21.3208 51.114 21.4834 51.0803 21.6405C51.0465 21.7975 50.9779 21.945 50.8797 22.0721C50.7814 22.1991 50.6558 22.3025 50.5123 22.3747C50.3688 22.4468 50.2109 22.4858 50.0503 22.4889H39.9053Z" fill="#FFAC00"/>
</svg>
