<svg width="68" height="56" viewBox="0 0 68 56" fill="none" xmlns="http://www.w3.org/2000/svg">
<path d="M67.0225 28.1641C67.1323 24.7417 66.1612 21.3716 64.2468 18.5325C62.9212 16.5916 61.1846 14.9662 59.1602 13.7717C57.1359 12.5773 54.8735 11.843 52.5335 11.6211C52.4257 11.6106 52.3219 11.575 52.2303 11.5172C52.1387 11.4593 52.062 11.3809 52.0061 11.288C49.8156 7.61532 46.571 4.68635 42.694 2.88173C38.8171 1.0771 34.487 0.480242 30.2663 1.16871C26.0457 1.85718 22.1298 3.79914 19.0273 6.74226C15.9248 9.68538 13.7792 13.4936 12.8693 17.6721C12.8212 17.7971 12.738 17.9056 12.6296 17.9844C12.5213 18.0633 12.3924 18.109 12.2586 18.1162C10.1887 18.2783 8.18809 18.9352 6.42503 20.0317C4.66197 21.1282 3.1881 22.6321 2.12743 24.4169C0.925963 26.4769 0.329517 28.8338 0.406518 31.2173C0.3744 32.809 0.662528 34.3909 1.25379 35.8691C1.84504 37.3472 2.72737 38.6914 3.84834 39.8219C6.57834 42.2569 10.0995 43.618 13.7575 43.6523H15.7282C16.4643 43.6523 17.1703 43.3599 17.6909 42.8393C18.2114 42.3188 18.5039 41.6128 18.5039 40.8766C18.5039 40.1405 18.2114 39.4345 17.6909 38.9139C17.1703 38.3934 16.4643 38.101 15.7282 38.101H13.7575C11.5585 38.0274 9.44365 37.2379 7.73428 35.8527C7.11203 35.1972 6.63281 34.4195 6.32701 33.569C6.02121 32.7184 5.8955 31.8137 5.95785 30.912C5.9468 29.9622 6.12479 29.0198 6.48146 28.1395C6.83814 27.2592 7.36637 26.4586 8.0354 25.7844C8.70443 25.1102 9.5009 24.5759 10.3784 24.2124C11.256 23.849 12.197 23.6638 13.1468 23.6675C13.6418 23.6695 14.135 23.7254 14.6179 23.834C15.0259 23.9174 15.4474 23.9079 15.8512 23.8063C16.2549 23.7046 16.6307 23.5135 16.9506 23.2469C17.2704 22.9803 17.5262 22.6452 17.699 22.2664C17.8718 21.8875 17.9572 21.4747 17.9487 21.0584C18.1985 5.15381 40.9867 0.601723 47.9814 15.507C48.2142 15.9968 48.5854 16.4076 49.0491 16.6888C49.5128 16.97 50.0487 17.1092 50.5906 17.0892C52.4159 17.0156 54.2289 17.42 55.85 18.2622C57.4711 19.1044 58.8443 20.3553 59.8335 21.8911C60.8946 23.5488 61.4626 25.4741 61.4712 27.4424C61.5414 29.7767 60.8119 32.0649 59.4034 33.9277C57.9949 35.7905 55.9921 37.1161 53.7271 37.6846C53.137 37.8628 52.6231 38.2323 52.2662 38.7349C51.9094 39.2374 51.73 39.8445 51.7563 40.4603C51.7681 40.8772 51.8736 41.2862 52.0652 41.6567C52.2567 42.0273 52.5293 42.3499 52.8627 42.6006C53.196 42.8513 53.5816 43.0236 53.9908 43.1048C54.3999 43.1859 54.8221 43.1738 55.2259 43.0694C58.5737 42.2579 61.5536 40.3496 63.6914 37.6485C65.8291 34.9474 67.0017 31.6087 67.0225 28.1641Z" fill="#0F051C"/>
<path d="M37.878 35.757C37.6957 35.757 37.5153 35.7211 37.3469 35.6513C37.1785 35.5816 37.0255 35.4793 36.8966 35.3505C36.7678 35.2216 36.6655 35.0686 36.5958 34.9002C36.526 34.7318 36.4901 34.5514 36.4901 34.3691V26.0421C36.4901 25.6741 36.3439 25.3211 36.0837 25.0608C35.8234 24.8005 35.4704 24.6543 35.1023 24.6543H23.9997C23.6316 24.6543 23.2786 24.8005 23.0183 25.0608C22.758 25.3211 22.6118 25.6741 22.6118 26.0421V53.7988C22.6118 54.1669 22.758 54.5199 23.0183 54.7801C23.2786 55.0404 23.6316 55.1866 23.9997 55.1866H46.205C46.5731 55.1866 46.9261 55.0404 47.1863 54.7801C47.4466 54.5199 47.5928 54.1669 47.5928 53.7988V37.1448C47.5928 36.9625 47.5569 36.7821 47.4872 36.6137C47.4174 36.4453 47.3152 36.2923 47.1863 36.1634C47.0574 36.0346 46.9045 35.9323 46.7361 35.8626C46.5677 35.7929 46.3872 35.757 46.205 35.757H37.878Z" fill="#0F051C"/>
<path d="M39.9595 34.1786H45.0945C45.2344 34.1823 45.3721 34.1437 45.4896 34.0677C45.6071 33.9917 45.6989 33.882 45.7529 33.7529C45.807 33.6238 45.8207 33.4815 45.7924 33.3444C45.764 33.2074 45.6949 33.0822 45.5941 32.9851L40.4592 27.8501C40.3637 27.7511 40.241 27.6827 40.1067 27.6535C39.9723 27.6243 39.8322 27.6357 39.7044 27.6863C39.5765 27.7369 39.4665 27.8243 39.3884 27.9375C39.3103 28.0506 39.2675 28.1845 39.2656 28.322V33.6235C39.2981 33.7826 39.3853 33.9253 39.5121 34.0267C39.6389 34.1282 39.7972 34.1819 39.9595 34.1786Z" fill="#0F051C"/>
</svg>
