<svg width="50" height="50" viewBox="0 0 50 50" fill="none" xmlns="http://www.w3.org/2000/svg">
<path d="M49.4101 17.8176L37.5108 5.81413C37.2948 5.60198 37.0352 5.43943 36.75 5.33781C36.4648 5.23619 36.1609 5.19793 35.8594 5.2257C35.5579 5.25347 35.2661 5.3466 35.0043 5.4986C34.7424 5.65061 34.5168 5.85784 34.3432 6.10588L24.9655 19.4639C24.654 19.8448 24.4873 20.3236 24.4949 20.8156C24.5025 21.3077 24.684 21.7811 25.0072 22.1522L32.9887 30.1336C33.3368 30.4844 33.7983 30.7 34.2907 30.742C34.7831 30.784 35.2745 30.6496 35.677 30.3628L49.035 20.9852C49.2889 20.8183 49.5033 20.5978 49.6631 20.3393C49.8229 20.0808 49.9242 19.7905 49.9599 19.4887C49.9957 19.1869 49.965 18.8809 49.87 18.5923C49.775 18.3036 49.618 18.0392 49.4101 17.8176Z" fill="#FFAC00"/>
<path d="M21.9854 23.2566C21.8368 23.1048 21.6444 23.0031 21.4352 22.9657C21.2261 22.9284 21.0104 22.9572 20.8184 23.0482L9.81525 28.0288C9.63276 28.1133 9.4786 28.2487 9.37137 28.4188C9.26414 28.5889 9.20841 28.7864 9.21091 28.9874C9.21091 29.1125 9.21091 42.7205 5.37648 48.3888C5.25404 48.5921 5.20318 48.8306 5.23198 49.0661C5.26078 49.3017 5.3676 49.5208 5.53541 49.6887C5.70322 49.8565 5.92237 49.9633 6.15794 49.9921C6.3935 50.0209 6.63193 49.97 6.83523 49.8476C12.5035 46.0548 26.1116 46.0131 26.2366 46.0131C26.4377 46.0156 26.6352 45.9599 26.8053 45.8527C26.9754 45.7455 27.1108 45.5913 27.1952 45.4088L32.1758 34.4056C32.2668 34.2136 32.2957 33.998 32.2583 33.7888C32.221 33.5796 32.1193 33.3873 31.9674 33.2386L21.9854 23.2566ZM23.1941 37.8441C22.611 38.4266 21.8684 38.8231 21.06 38.9835C20.2517 39.1439 19.4139 39.0611 18.6526 38.7455C17.8913 38.4299 17.2406 37.8957 16.7828 37.2104C16.3251 36.5251 16.0807 35.7195 16.0807 34.8954C16.0807 34.0712 16.3251 33.2656 16.7828 32.5803C17.2406 31.895 17.8913 31.3608 18.6526 31.0452C19.4139 30.7296 20.2517 30.6468 21.06 30.8073C21.8684 30.9677 22.611 31.3642 23.1941 31.9466C23.5943 32.3351 23.9124 32.7999 24.1296 33.3136C24.3469 33.8273 24.4588 34.3793 24.4588 34.9371C24.4588 35.4948 24.3469 36.0468 24.1296 36.5605C23.9124 37.0742 23.5943 37.539 23.1941 37.9275V37.8441Z" fill="#FFAC00"/>
<path d="M7.29376 17.1924C7.29376 17.8833 7.5682 18.5459 8.05672 19.0344C8.54524 19.5229 9.20781 19.7973 9.89867 19.7973C10.5895 19.7973 11.2521 19.5229 11.7406 19.0344C12.2291 18.5459 12.5036 17.8833 12.5036 17.1924V13.0246C12.5036 12.8864 12.5585 12.7539 12.6562 12.6562C12.7539 12.5585 12.8864 12.5036 13.0246 12.5036H17.1924C17.8833 12.5036 18.5459 12.2291 19.0344 11.7406C19.5229 11.2521 19.7973 10.5895 19.7973 9.89867C19.7973 9.20781 19.5229 8.54524 19.0344 8.05672C18.5459 7.5682 17.8833 7.29376 17.1924 7.29376H13.0246C12.8864 7.29376 12.7539 7.23887 12.6562 7.14117C12.5585 7.04346 12.5036 6.91095 12.5036 6.77278V2.60491C12.5036 1.91405 12.2291 1.25148 11.7406 0.762962C11.2521 0.274446 10.5895 0 9.89867 0C9.20781 0 8.54524 0.274446 8.05672 0.762962C7.5682 1.25148 7.29376 1.91405 7.29376 2.60491V6.77278C7.29376 6.91095 7.23887 7.04346 7.14117 7.14117C7.04346 7.23887 6.91095 7.29376 6.77278 7.29376H2.60491C1.91405 7.29376 1.25148 7.5682 0.762962 8.05672C0.274446 8.54524 0 9.20781 0 9.89867C0 10.5895 0.274446 11.2521 0.762962 11.7406C1.25148 12.2291 1.91405 12.5036 2.60491 12.5036H6.77278C6.91095 12.5036 7.04346 12.5585 7.14117 12.6562C7.23887 12.7539 7.29376 12.8864 7.29376 13.0246V17.1924Z" fill="#FFAC00"/>
</svg>
