<svg width="50" height="50" viewBox="0 0 50 50" fill="none" xmlns="http://www.w3.org/2000/svg">
<path d="M49.4101 17.8175L37.5108 5.81401C37.2948 5.60186 37.0352 5.43931 36.75 5.33769C36.4648 5.23607 36.1609 5.19781 35.8594 5.22558C35.5579 5.25335 35.2661 5.34648 35.0043 5.49848C34.7424 5.65049 34.5168 5.85772 34.3432 6.10576L24.9655 19.4638C24.654 19.8446 24.4873 20.3235 24.4949 20.8155C24.5025 21.3075 24.684 21.781 25.0072 22.152L32.9887 30.1335C33.3368 30.4843 33.7983 30.6999 34.2907 30.7419C34.7831 30.7839 35.2745 30.6495 35.677 30.3627L49.035 20.985C49.2889 20.8181 49.5033 20.5977 49.6631 20.3392C49.8229 20.0807 49.9242 19.7904 49.9599 19.4886C49.9957 19.1868 49.965 18.8808 49.87 18.5921C49.775 18.3035 49.618 18.0391 49.4101 17.8175Z" fill="#0F051C"/>
<path d="M21.9854 23.257C21.8368 23.1051 21.6444 23.0035 21.4352 22.9661C21.2261 22.9287 21.0104 22.9576 20.8184 23.0486L9.81525 28.0292C9.63276 28.1136 9.4786 28.2491 9.37137 28.4191C9.26414 28.5892 9.20841 28.7867 9.21091 28.9878C9.21091 29.1128 9.21091 42.7209 5.37648 48.3892C5.25404 48.5925 5.20318 48.8309 5.23198 49.0665C5.26078 49.3021 5.3676 49.5212 5.53541 49.689C5.70322 49.8568 5.92237 49.9636 6.15794 49.9924C6.3935 50.0213 6.63193 49.9704 6.83523 49.8479C12.5035 46.0552 26.1116 46.0135 26.2366 46.0135C26.4377 46.016 26.6352 45.9603 26.8053 45.8531C26.9754 45.7458 27.1108 45.5917 27.1952 45.4092L32.1758 34.406C32.2668 34.214 32.2957 33.9984 32.2583 33.7892C32.221 33.58 32.1193 33.3877 31.9674 33.239L21.9854 23.257ZM23.1941 37.8445C22.611 38.4269 21.8684 38.8234 21.06 38.9839C20.2517 39.1443 19.4139 39.0615 18.6526 38.7459C17.8913 38.4303 17.2406 37.8961 16.7828 37.2108C16.3251 36.5255 16.0807 35.7199 16.0807 34.8957C16.0807 34.0716 16.3251 33.266 16.7828 32.5807C17.2406 31.8954 17.8913 31.3612 18.6526 31.0456C19.4139 30.73 20.2517 30.6472 21.06 30.8076C21.8684 30.9681 22.611 31.3646 23.1941 31.947C23.5943 32.3355 23.9124 32.8003 24.1296 33.314C24.3469 33.8277 24.4588 34.3797 24.4588 34.9374C24.4588 35.4951 24.3469 36.0472 24.1296 36.5609C23.9124 37.0745 23.5943 37.5394 23.1941 37.9279V37.8445Z" fill="#0F051C"/>
<path d="M7.29376 17.1924C7.29376 17.8833 7.5682 18.5459 8.05672 19.0344C8.54524 19.5229 9.20781 19.7973 9.89867 19.7973C10.5895 19.7973 11.2521 19.5229 11.7406 19.0344C12.2291 18.5459 12.5036 17.8833 12.5036 17.1924V13.0246C12.5036 12.8864 12.5585 12.7539 12.6562 12.6562C12.7539 12.5585 12.8864 12.5036 13.0246 12.5036H17.1924C17.8833 12.5036 18.5459 12.2291 19.0344 11.7406C19.5229 11.2521 19.7973 10.5895 19.7973 9.89867C19.7973 9.20781 19.5229 8.54524 19.0344 8.05672C18.5459 7.5682 17.8833 7.29376 17.1924 7.29376H13.0246C12.8864 7.29376 12.7539 7.23887 12.6562 7.14117C12.5585 7.04346 12.5036 6.91095 12.5036 6.77278V2.60491C12.5036 1.91405 12.2291 1.25148 11.7406 0.762962C11.2521 0.274446 10.5895 0 9.89867 0C9.20781 0 8.54524 0.274446 8.05672 0.762962C7.5682 1.25148 7.29376 1.91405 7.29376 2.60491V6.77278C7.29376 6.91095 7.23887 7.04346 7.14117 7.14117C7.04346 7.23887 6.91095 7.29376 6.77278 7.29376H2.60491C1.91405 7.29376 1.25148 7.5682 0.762962 8.05672C0.274446 8.54524 0 9.20781 0 9.89867C0 10.5895 0.274446 11.2521 0.762962 11.7406C1.25148 12.2291 1.91405 12.5036 2.60491 12.5036H6.77278C6.91095 12.5036 7.04346 12.5585 7.14117 12.6562C7.23887 12.7539 7.29376 12.8864 7.29376 13.0246V17.1924Z" fill="#0F051C"/>
</svg>
