<svg width="55" height="55" viewBox="0 0 55 55" fill="none" xmlns="http://www.w3.org/2000/svg">
<path d="M27.5 55C12.3122 55 0 42.6877 0 27.5C0 12.3122 12.3122 0 27.5 0C42.6877 0 55 12.3122 55 27.5C55 42.6877 42.6877 55 27.5 55ZM49.5 27.5C49.5 15.3497 39.6503 5.5 27.5 5.5C15.3497 5.5 5.5 15.3497 5.5 27.5C5.5 39.6503 15.3497 49.5 27.5 49.5C31.5431 49.5 35.3315 48.4094 38.5869 46.5064L35.8152 41.7546C33.3737 43.1822 30.5324 44 27.5 44C18.3873 44 11 36.6127 11 27.5C11 18.3873 18.3873 11 27.5 11C36.6127 11 44 18.3873 44 27.5V30.25C44 31.7688 42.7688 33 41.25 33C39.7312 33 38.5 31.7688 38.5 30.25V19.25H34.776C32.8369 17.5385 30.2896 16.5 27.5 16.5C21.4249 16.5 16.5 21.4249 16.5 27.5C16.5 33.575 21.4249 38.5 27.5 38.5C30.3779 38.5 32.9975 37.3951 34.9577 35.5861C36.4711 37.3687 38.7285 38.5 41.25 38.5C45.8065 38.5 49.5 34.8065 49.5 30.25V27.5ZM27.5 22C30.5377 22 33 24.4624 33 27.5C33 30.5377 30.5377 33 27.5 33C24.4624 33 22 30.5377 22 27.5C22 24.4624 24.4624 22 27.5 22Z" fill="#FFAC00"/>
</svg>
