<svg width="130" height="50" viewBox="0 0 130 50" fill="none" xmlns="http://www.w3.org/2000/svg">
<rect width="130" height="50" rx="25" fill="#FFAC00"/>
<path d="M118.729 25.7145L96.1852 9.23096V42.198L118.729 25.7145Z" fill="#0F051C"/>
<path d="M73.6418 25.7145L96.1852 42.198V9.23096L73.6418 25.7145Z" fill="#0F051C"/>
<path d="M85.2355 25.7145C85.2355 31.9049 90.1379 36.9233 96.1852 36.9233C102.232 36.9233 107.135 31.9049 107.135 25.7145C107.135 19.524 102.232 14.5057 96.1852 14.5057C90.1379 14.5057 85.2355 19.524 85.2355 25.7145Z" fill="#FFAC00"/>
<path d="M43.8256 19.0195L43.0979 19.4807H43.9594H51.8496H52.0996V19.2307V14.2307V13.7763L51.7158 14.0195L43.8256 19.0195ZM43.9594 30.5191H43.0979L43.8256 30.9803L51.7158 35.9803L52.0996 36.2235L52.0996 35.7691L52.0996 30.7691L52.0996 30.5191H51.8496H48.0924H43.9594ZM23.0442 30.9855L23.8502 30.5191H22.919H14.2774H14.0274V30.7691V35.7691V36.2026L14.4026 35.9855L23.0442 30.9855ZM22.919 19.8653H23.7929L23.0512 19.4031L14.4096 14.0185L14.0274 13.7803V14.2307V19.6153V19.8653H14.2774H22.919ZM49.7261 11.7514L50.48 11.2883H49.5953H38.3236H38.0736V11.5383V18.4614V18.9084L38.4544 18.6745L49.7261 11.7514ZM49.5953 38.7114L50.48 38.7114L49.7261 38.2484L38.4544 31.3253L38.0736 31.0914V31.5383V35.7691V38.4614V38.7114H38.3236L49.5953 38.7114ZM16.3988 38.2497L15.6628 38.7114L16.5317 38.7114L28.1791 38.7114H28.4291V38.4614V31.1537V30.7017L28.0462 30.942L16.3988 38.2497ZM16.5317 11.2883H15.647L16.4009 11.7514L27.6725 18.6745L28.0534 18.9084V18.4614V11.5383V11.2883H27.8034H16.5317ZM35.3706 38.7114H35.6206V38.4614V27.9422L51.8496 27.9422H52.0996L52.0996 27.6922L52.0996 22.3076L52.0996 22.0576H51.8496H35.6206V11.5383V11.2883H35.3706H30.7564H30.5064V11.5383V22.0576H14.2774H14.0274V22.3076V27.6922V27.9422H14.2774L30.5064 27.9422V38.4614V38.7114H30.7564H35.3706Z" stroke="#0F051C" stroke-width="0.5"/>
</svg>
