<svg width="134" height="50" viewBox="0 0 134 50" fill="none" xmlns="http://www.w3.org/2000/svg">
<rect width="133.077" height="50" rx="25" fill="#FFAC00"/>
<path d="M121.538 25.7145L98.4612 9.23096V42.198L121.538 25.7145Z" fill="#0F051C"/>
<path d="M75.3842 25.7145L98.4612 42.198V9.23096L75.3842 25.7145Z" fill="#0F051C"/>
<path d="M87.2524 25.7145C87.2524 31.9049 92.2707 36.9233 98.4612 36.9233C104.652 36.9233 109.67 31.9049 109.67 25.7145C109.67 19.524 104.652 14.5057 98.4612 14.5057C92.2707 14.5057 87.2524 19.524 87.2524 25.7145Z" fill="#FFAC00"/>
<path d="M44.8686 19.0181L44.1214 19.4807H45.0002H53.0771H53.3271V19.2307V14.2307V13.7819L52.9456 14.0181L44.8686 19.0181ZM45.0002 30.5191H44.1214L44.8686 30.9817L52.9456 35.9817L53.3271 36.2179L53.3271 35.7691L53.3271 30.7691L53.3271 30.5191H53.0771H49.231H45.0002ZM23.5848 30.9868L24.4121 30.5191H23.4618H14.6156H14.3656V30.7691V35.7691V36.1976L14.7386 35.9868L23.5848 30.9868ZM23.4618 19.8653H24.3533L23.5917 19.4017L14.7456 14.0171L14.3656 13.7858V14.2307V19.6153V19.8653H14.6156H23.4618ZM50.8981 11.7527L51.672 11.2883H50.7695H39.231H38.981V11.5383V18.4614V18.903L39.3596 18.6758L50.8981 11.7527ZM50.7695 38.7114L51.672 38.7114L50.8981 38.2471L39.3596 31.324L38.981 31.0968V31.5383V35.7691V38.4614V38.7114H39.231L50.7695 38.7114ZM16.7927 38.2483L16.037 38.7114L16.9233 38.7114L28.8464 38.7114H29.0964V38.4614V31.1537V30.7073L28.7157 30.9406L16.7927 38.2483ZM16.9233 11.2883H16.0207L16.7947 11.7527L28.3331 18.6758L28.7118 18.903V18.4614V11.5383V11.2883H28.4618H16.9233ZM36.208 38.7114H36.458V38.4614V27.9422L53.0771 27.9422H53.3271L53.3271 27.6922L53.3271 22.3076V22.0576H53.0771H36.458V11.5383V11.2883H36.208H31.4847H31.2347V11.5383V22.0576H14.6156H14.3656V22.3076V27.6922V27.9422H14.6156L31.2347 27.9422V38.4614V38.7114H31.4847H36.208Z" stroke="#0F051C" stroke-width="0.5"/>
</svg>
