<svg width="372" height="179" viewBox="0 0 372 179" fill="none" xmlns="http://www.w3.org/2000/svg">
<rect x="0.5" y="0.5" width="371" height="178" rx="4.5" stroke="#9747FF" stroke-dasharray="10 5"/>
<rect x="218" y="105" width="133.077" height="50" rx="25" fill="#FFAC00"/>
<path d="M263 124.231H271.077V119.231L263 124.231Z" fill="#0F051C"/>
<path d="M263 135.769H267.231H271.077L271.077 140.769L263 135.769Z" fill="#0F051C"/>
<path d="M241.462 135.769H232.615V140.769L241.462 135.769Z" fill="#0F051C"/>
<path d="M241.462 124.615H232.615V119.231L241.462 124.615Z" fill="#0F051C"/>
<path d="M268.769 116.538H257.231V123.462L268.769 116.538Z" fill="#0F051C"/>
<path d="M268.769 143.462L257.231 143.462V140.769V136.538L268.769 143.462Z" fill="#0F051C"/>
<path d="M234.923 143.462L246.846 143.462V136.154L234.923 143.462Z" fill="#0F051C"/>
<path d="M234.923 116.538H246.462V123.462L234.923 116.538Z" fill="#0F051C"/>
<path d="M254.208 143.462H249.484V130V116.538H254.208V143.462Z" fill="#0F051C"/>
<path d="M232.615 132.692V127.308L271.077 127.308L271.077 132.692L232.615 132.692Z" fill="#0F051C"/>
<path d="M316.462 146.891L339.108 130.714L316.462 114.538L293.815 130.714L316.462 146.891Z" stroke="#0F051C" stroke-width="0.5"/>
<path d="M305.503 130.714C305.503 136.767 310.409 141.673 316.461 141.673C322.514 141.673 327.42 136.767 327.42 130.714C327.42 124.662 322.514 119.755 316.461 119.755C310.409 119.755 305.503 124.662 305.503 130.714Z" stroke="#0F051C" stroke-width="0.5"/>
<rect x="218" y="20" width="133.077" height="50" rx="25" fill="#FFAC00"/>
<path d="M339.538 45.7143L316.462 29.2308V62.1978L339.538 45.7143Z" fill="#0F051C"/>
<path d="M293.385 45.7143L316.462 62.1978V29.2308L293.385 45.7143Z" fill="#0F051C"/>
<path d="M305.253 45.7143C305.253 51.9047 310.271 56.9231 316.462 56.9231C322.652 56.9231 327.67 51.9047 327.67 45.7143C327.67 39.5238 322.652 34.5055 316.462 34.5055C310.271 34.5055 305.253 39.5238 305.253 45.7143Z" fill="#FFAC00"/>
<path d="M262.868 39.0182L262.121 39.4808H263H271.077H271.327V39.2308V34.2308V33.782L270.945 34.0182L262.868 39.0182ZM263 50.5192H262.121L262.868 50.9818L270.945 55.9818L271.327 56.218L271.327 55.7692L271.327 50.7692L271.327 50.5192H271.077H267.231H263ZM241.585 50.9869L242.412 50.5192H241.462H232.615H232.365V50.7692V55.7692V56.1977L232.738 55.9869L241.585 50.9869ZM241.462 39.8654H242.353L241.592 39.4018L232.745 34.0172L232.365 33.7859V34.2308V39.6154V39.8654H232.615H241.462ZM268.898 31.7528L269.672 31.2885H268.769H257.231H256.981V31.5385V38.4615V38.9031L257.359 38.6759L268.898 31.7528ZM268.769 58.7115L269.672 58.7115L268.898 58.2472L257.359 51.3241L256.981 51.0969V51.5385V55.7692V58.4615V58.7115H257.231L268.769 58.7115ZM234.792 58.2484L234.037 58.7115L234.923 58.7115L246.846 58.7115H247.096V58.4615V51.1539V50.7074L246.715 50.9407L234.792 58.2484ZM234.923 31.2885H234.02L234.794 31.7528L246.333 38.6759L246.712 38.9031V38.4615V31.5385V31.2885H246.462H234.923ZM254.208 58.7115H254.458V58.4615V47.9423L271.077 47.9423H271.327L271.327 47.6923L271.327 42.3077V42.0577H271.077H254.458V31.5385V31.2885H254.208H249.484H249.234V31.5385V42.0577H232.615H232.365V42.3077V47.6923V47.9423H232.615L249.234 47.9423V58.4615V58.7115H249.484H254.208Z" stroke="#0F051C" stroke-width="0.5"/>
<path d="M20 130C20 116.193 31.1929 105 45 105H128.077C141.884 105 153.077 116.193 153.077 130C153.077 143.807 141.884 155 128.077 155H45C31.1929 155 20 143.807 20 130Z" fill="#0F051C"/>
<path d="M65 124.231H73.0769V119.231L65 124.231Z" fill="#FFAC00"/>
<path d="M65 135.769H69.2308H73.0769L73.0769 140.769L65 135.769Z" fill="#FFAC00"/>
<path d="M43.4615 135.769H34.6154V140.769L43.4615 135.769Z" fill="#FFAC00"/>
<path d="M43.4615 124.615H34.6154V119.231L43.4615 124.615Z" fill="#FFAC00"/>
<path d="M70.7692 116.538H59.2308V123.462L70.7692 116.538Z" fill="#FFAC00"/>
<path d="M70.7692 143.462L59.2308 143.462V140.769V136.538L70.7692 143.462Z" fill="#FFAC00"/>
<path d="M36.9231 143.462L48.8462 143.462V136.154L36.9231 143.462Z" fill="#FFAC00"/>
<path d="M36.9231 116.538H48.4615V123.462L36.9231 116.538Z" fill="#FFAC00"/>
<path d="M56.2078 143.462H51.4845V130V116.538H56.2078V143.462Z" fill="#FFAC00"/>
<path d="M34.6154 132.692V127.308L73.0769 127.308L73.0769 132.692L34.6154 132.692Z" fill="#FFAC00"/>
<path d="M118.462 146.891L141.108 130.714L118.462 114.538L95.8148 130.714L118.462 146.891Z" stroke="#FFAC00" stroke-width="0.5"/>
<path d="M107.503 130.714C107.503 136.767 112.409 141.673 118.462 141.673C124.514 141.673 129.42 136.767 129.42 130.714C129.42 124.662 124.514 119.755 118.462 119.755C112.409 119.755 107.503 124.662 107.503 130.714Z" stroke="#FFAC00" stroke-width="0.5"/>
<rect x="20" y="20" width="133.077" height="50" rx="25" fill="#0F051C"/>
<path d="M141.538 45.7143L118.462 29.2308V62.1978L141.538 45.7143Z" fill="#FFAC00"/>
<path d="M95.3846 45.7143L118.462 62.1978V29.2308L95.3846 45.7143Z" fill="#FFAC00"/>
<path d="M107.253 45.7143C107.253 51.9047 112.271 56.9231 118.462 56.9231C124.652 56.9231 129.67 51.9047 129.67 45.7143C129.67 39.5238 124.652 34.5055 118.462 34.5055C112.271 34.5055 107.253 39.5238 107.253 45.7143Z" fill="#0F051C"/>
<path d="M64.8684 39.0182L64.1212 39.4808H65H73.0769H73.3269V39.2308V34.2308V33.782L72.9453 34.0182L64.8684 39.0182ZM65 50.5192H64.1212L64.8684 50.9818L72.9453 55.9818L73.3269 56.218L73.3269 55.7692L73.3269 50.7692L73.3269 50.5192H73.0769H69.2308H65ZM43.5846 50.9869L44.4119 50.5192H43.4615H34.6154H34.3654V50.7692V55.7692V56.1977L34.7384 55.9869L43.5846 50.9869ZM43.4615 39.8654H44.3531L43.5915 39.4018L34.7454 34.0172L34.3654 33.7859V34.2308V39.6154V39.8654H34.6154H43.4615ZM70.8979 31.7528L71.6718 31.2885H70.7692H59.2308H58.9808V31.5385V38.4615V38.9031L59.3594 38.6759L70.8979 31.7528ZM70.7692 58.7115L71.6718 58.7115L70.8979 58.2472L59.3594 51.3241L58.9808 51.0969V51.5385V55.7692V58.4615V58.7115H59.2308L70.7692 58.7115ZM36.7925 58.2484L36.0368 58.7115L36.9231 58.7115L48.8462 58.7115H49.0962V58.4615V51.1539V50.7074L48.7155 50.9407L36.7925 58.2484ZM36.9231 31.2885H36.0205L36.7945 31.7528L48.3329 38.6759L48.7115 38.9031V38.4615V31.5385V31.2885H48.4615H36.9231ZM56.2078 58.7115H56.4578V58.4615V47.9423L73.0769 47.9423H73.3269L73.3269 47.6923L73.3269 42.3077V42.0577H73.0769H56.4578V31.5385V31.2885H56.2078H51.4845H51.2345V31.5385V42.0577H34.6154H34.3654V42.3077V47.6923V47.9423H34.6154L51.2345 47.9423V58.4615V58.7115H51.4845H56.2078Z" stroke="#FFAC00" stroke-width="0.5"/>
</svg>
