<svg width="46" height="50" viewBox="0 0 46 50" fill="none" xmlns="http://www.w3.org/2000/svg">
<path fill-rule="evenodd" clip-rule="evenodd" d="M8.46517 8.52026C9.38661 7.57041 9.89741 6.2962 9.8871 4.97286C9.83914 3.68916 9.3026 2.47227 8.38724 1.57098C7.47187 0.669697 6.2468 0.152103 4.9625 0.124023C3.67443 0.151588 2.44505 0.667901 1.52354 1.5683C0.602044 2.46869 0.0573906 3.68578 0 4.97286C0.0185377 6.29393 0.543878 7.55732 1.46745 8.50205C2.39101 9.44679 3.64222 10.0006 4.9625 10.049C6.28552 10.0192 7.54369 9.47007 8.46517 8.52026ZM4.04027 16.5889C1.95505 16.5417 0.530343 16.5094 0.530343 19.0649V47.4761C0.530343 49.9787 1.88892 49.9268 3.84668 49.8525C4.20055 49.839 4.57397 49.8248 4.9625 49.8248C5.35174 49.8248 5.72491 49.839 6.07785 49.8525C8.02623 49.9268 9.35678 49.9777 9.35678 47.4761V19.0649C9.35678 16.5099 7.96173 16.5417 5.88444 16.5889C5.59016 16.5956 5.28216 16.6026 4.9625 16.6026C4.64333 16.6026 4.33519 16.5956 4.04027 16.5889ZM18.562 16.6405C17.6149 16.8299 17.0088 17.436 17.0088 19.0649V47.4761C17.0088 49.9762 18.3107 49.9272 20.272 49.8525C20.6285 49.839 21.0069 49.8248 21.4031 49.8248C21.7987 49.8248 22.1772 49.839 22.5347 49.8525C24.5054 49.9272 25.8353 49.9773 25.8353 47.4761V32.3235C25.7599 31.5492 25.8499 30.7677 26.0992 30.0308C26.3486 29.2939 26.7516 28.6184 27.2817 28.0489C27.8117 27.4795 28.4566 27.0291 29.1738 26.7277C29.891 26.4262 30.664 26.2805 31.4418 26.3003C32.2231 26.254 33.0052 26.3763 33.7352 26.6591C34.4651 26.9418 35.1253 27.3783 35.6718 27.9389C36.2179 28.4995 36.637 29.171 36.9008 29.908C37.1643 30.6449 37.2663 31.43 37.1999 32.2098V47.3623C37.1999 49.8628 38.5018 49.8134 40.463 49.7391C40.8196 49.7256 41.1979 49.711 41.5939 49.711C41.9903 49.711 42.3686 49.7256 42.7252 49.7391C44.6864 49.8134 45.9884 49.8628 45.9884 47.3623V27.9671C46.0605 26.3746 45.7967 24.7848 45.214 23.301C44.6316 21.8171 43.7435 20.4724 42.6076 19.3541C41.4713 18.2359 40.1128 17.3692 38.6199 16.8103C37.127 16.2514 35.5331 16.0129 33.9421 16.1101C32.3216 15.9628 30.6906 16.2337 29.2049 16.897C27.7192 17.5602 26.4286 18.5936 25.4565 19.8983C25.4943 18.4967 25.0397 16.6405 23.9033 16.6405C23.5774 16.6405 23.0771 16.6249 22.5069 16.6071C21.0886 16.563 19.2375 16.5054 18.562 16.6405Z" fill="#FFAC00"/>
</svg>
