<svg width="135" height="170" viewBox="0 0 135 170" fill="none" xmlns="http://www.w3.org/2000/svg">
<rect x="0.5" y="0.5" width="134" height="169" rx="4.5" stroke="#9747FF" stroke-dasharray="10 5"/>
<rect x="20" y="23" width="92.3077" height="50" rx="25" fill="#0F051C"/>
<path fill-rule="evenodd" clip-rule="evenodd" d="M45.3846 25.3077C32.6396 25.3077 22.3077 35.6396 22.3077 48.3846C22.3077 61.1296 32.6396 71.4615 45.3846 71.4615C49.1199 71.4615 52.6478 70.5741 55.7692 68.9985C48.2402 65.1982 43.0769 57.3944 43.0769 48.3846C43.0769 39.3748 48.2402 31.571 55.7692 27.7707C52.6478 26.1951 49.1199 25.3077 45.3846 25.3077Z" fill="#FFAC00"/>
<rect x="20" y="97" width="92.3077" height="50" rx="25" fill="#FFAC00"/>
<path d="M63 122C63 108.745 73.7452 98 87 98C100.255 98 111 108.745 111 122C111 135.255 100.255 146 87 146C73.7452 146 63 135.255 63 122Z" fill="#0F051C"/>
<path d="M74.5 122C74.5 115.096 80.0964 109.5 87 109.5C93.9036 109.5 99.5 115.096 99.5 122C99.5 128.904 93.9036 134.5 87 134.5C80.0964 134.5 74.5 128.904 74.5 122Z" fill="#FFAC00"/>
<path d="M87 147C85.7672 147 84.7679 146.001 84.7679 144.768V140.304C84.7679 139.071 85.7672 138.071 87 138.071C88.2328 138.071 89.2321 139.071 89.2321 140.304V144.768C89.2321 146.001 88.2328 147 87 147Z" fill="#FFAC00"/>
<path d="M104.678 139.678C103.806 140.549 102.393 140.549 101.521 139.678L98.3642 136.521C97.4925 135.649 97.4925 134.236 98.3642 133.364C99.2359 132.493 100.649 132.493 101.521 133.364L104.678 136.521C105.549 137.393 105.549 138.806 104.678 139.678Z" fill="#FFAC00"/>
<path d="M104.678 104.322C105.549 105.194 105.549 106.607 104.678 107.479L101.521 110.636C100.649 111.507 99.236 111.507 98.3642 110.636C97.4925 109.764 97.4925 108.351 98.3642 107.479L101.521 104.322C102.393 103.451 103.806 103.451 104.678 104.322Z" fill="#FFAC00"/>
<path d="M103.071 122C103.071 123.233 104.071 124.232 105.304 124.232H109.768C111.001 124.232 112 123.233 112 122C112 120.767 111.001 119.768 109.768 119.768H105.304C104.071 119.768 103.071 120.767 103.071 122Z" fill="#FFAC00"/>
<path d="M87 105.929C88.2328 105.929 89.2321 104.929 89.2321 103.696V99.2321C89.2321 97.9994 88.2328 97 87 97C85.7672 97 84.7679 97.9994 84.7679 99.2321V103.696C84.7679 104.929 85.7672 105.929 87 105.929Z" fill="#FFAC00"/>
<path d="M75.6358 110.636C76.5075 109.764 76.5075 108.351 75.6358 107.479L72.4791 104.322C71.6074 103.451 70.194 103.451 69.3223 104.322C68.4506 105.194 68.4506 106.607 69.3223 107.479L72.4791 110.636C73.3508 111.507 74.7641 111.507 75.6358 110.636Z" fill="#FFAC00"/>
<path d="M75.6358 133.364C74.7641 132.493 73.3508 132.493 72.4791 133.364L69.3224 136.521C68.4507 137.393 68.4507 138.806 69.3224 139.678C70.1941 140.549 71.6074 140.549 72.4791 139.678L75.6358 136.521C76.5075 135.649 76.5075 134.236 75.6358 133.364Z" fill="#FFAC00"/>
<path d="M62 122C62 120.767 62.9994 119.768 64.2321 119.768H68.6964C69.9292 119.768 70.9286 120.767 70.9286 122C70.9286 123.233 69.9292 124.232 68.6964 124.232H64.2321C62.9994 124.232 62 123.233 62 122Z" fill="#FFAC00"/>
</svg>
