<svg width="92" height="50" viewBox="0 0 92 50" fill="none" xmlns="http://www.w3.org/2000/svg">
<rect width="92" height="50" rx="25" fill="#FFAC00"/>
<path d="M42.8564 25.0001C42.8564 11.7894 53.5658 1.08008 66.7764 1.08008V1.08008C79.9871 1.08008 90.6964 11.7894 90.6964 25.0001V25.0001C90.6964 38.2107 79.9871 48.9201 66.7764 48.9201V48.9201C53.5658 48.9201 42.8564 38.2107 42.8564 25.0001V25.0001Z" fill="#0F051C"/>
<path d="M54.3182 25C54.3182 18.0964 59.896 12.5 66.7765 12.5C73.6571 12.5 79.2349 18.0964 79.2349 25C79.2349 31.9036 73.6571 37.5 66.7765 37.5C59.896 37.5 54.3182 31.9036 54.3182 25Z" fill="#FFAC00"/>
<path d="M66.7765 50C65.5479 50 64.5518 49.0006 64.5518 47.7679V43.3036C64.5518 42.0708 65.5479 41.0714 66.7765 41.0714C68.0052 41.0714 69.0012 42.0708 69.0012 43.3036V47.7679C69.0012 49.0006 68.0052 50 66.7765 50Z" fill="#FFAC00"/>
<path d="M84.3953 42.6777C83.5265 43.5494 82.1179 43.5494 81.2491 42.6777L78.1029 39.5209C77.2341 38.6492 77.2341 37.2359 78.1029 36.3642C78.9717 35.4925 80.3803 35.4925 81.2491 36.3642L84.3953 39.5209C85.2641 40.3927 85.2641 41.806 84.3953 42.6777Z" fill="#FFAC00"/>
<path d="M84.3953 7.32233C85.2641 8.19404 85.2641 9.60735 84.3953 10.4791L81.2491 13.6358C80.3803 14.5075 78.9717 14.5075 78.1029 13.6358C77.2341 12.7641 77.2341 11.3508 78.1029 10.4791L81.2491 7.32233C82.1179 6.45062 83.5265 6.45062 84.3953 7.32233Z" fill="#FFAC00"/>
<path d="M82.7944 25C82.7944 26.2328 83.7904 27.2321 85.0191 27.2321H89.4685C90.6972 27.2321 91.6932 26.2328 91.6932 25C91.6932 23.7672 90.6972 22.7679 89.4685 22.7679H85.0191C83.7904 22.7679 82.7944 23.7672 82.7944 25Z" fill="#FFAC00"/>
<path d="M66.7765 8.92857C68.0052 8.92857 69.0012 7.92921 69.0012 6.69643V2.23214C69.0012 0.999364 68.0052 -5.38865e-08 66.7765 0C65.5479 5.38865e-08 64.5518 0.999364 64.5518 2.23214V6.69643C64.5518 7.92921 65.5479 8.92857 66.7765 8.92857Z" fill="#FFAC00"/>
<path d="M55.4502 13.6358C56.319 12.7641 56.319 11.3508 55.4502 10.4791L52.304 7.32233C51.4352 6.45062 50.0266 6.45062 49.1578 7.32233C48.289 8.19403 48.289 9.60735 49.1578 10.4791L52.304 13.6358C53.1728 14.5075 54.5814 14.5075 55.4502 13.6358Z" fill="#FFAC00"/>
<path d="M55.4502 36.3642C54.5814 35.4925 53.1728 35.4925 52.304 36.3642L49.1578 39.5209C48.289 40.3926 48.289 41.806 49.1578 42.6777C50.0266 43.5494 51.4352 43.5494 52.304 42.6777L55.4502 39.5209C56.319 38.6492 56.319 37.2359 55.4502 36.3642Z" fill="#FFAC00"/>
<path d="M41.8599 25C41.8599 23.7672 42.8559 22.7679 44.0846 22.7679H48.534C49.7626 22.7679 50.7587 23.7672 50.7587 25C50.7587 26.2328 49.7626 27.2321 48.534 27.2321H44.0846C42.8559 27.2321 41.8599 26.2328 41.8599 25Z" fill="#FFAC00"/>
</svg>
