<svg width="93" height="50" viewBox="0 0 93 50" fill="none" xmlns="http://www.w3.org/2000/svg">
<rect width="92.3077" height="50" rx="25" fill="#FFAC00"/>
<path d="M43 25C43 11.7452 53.7452 1 67 1V1C80.2548 1 91 11.7452 91 25V25C91 38.2548 80.2548 49 67 49V49C53.7452 49 43 38.2548 43 25V25Z" fill="#0F051C"/>
<path d="M54.5 25C54.5 18.0964 60.0964 12.5 67 12.5C73.9036 12.5 79.5 18.0964 79.5 25C79.5 31.9036 73.9036 37.5 67 37.5C60.0964 37.5 54.5 31.9036 54.5 25Z" fill="#FFAC00"/>
<path d="M67 50C65.7672 50 64.7679 49.0006 64.7679 47.7679V43.3036C64.7679 42.0708 65.7672 41.0714 67 41.0714C68.2328 41.0714 69.2321 42.0708 69.2321 43.3036V47.7679C69.2321 49.0006 68.2328 50 67 50Z" fill="#FFAC00"/>
<path d="M84.6777 42.6777C83.806 43.5494 82.3926 43.5494 81.5209 42.6777L78.3642 39.5209C77.4925 38.6492 77.4925 37.2359 78.3642 36.3642C79.2359 35.4925 80.6492 35.4925 81.5209 36.3642L84.6777 39.5209C85.5494 40.3927 85.5494 41.806 84.6777 42.6777Z" fill="#FFAC00"/>
<path d="M84.6777 7.32233C85.5494 8.19404 85.5494 9.60735 84.6777 10.4791L81.521 13.6358C80.6493 14.5075 79.2359 14.5075 78.3642 13.6358C77.4925 12.7641 77.4925 11.3508 78.3642 10.4791L81.521 7.32233C82.3927 6.45062 83.806 6.45062 84.6777 7.32233Z" fill="#FFAC00"/>
<path d="M83.0714 25C83.0714 26.2328 84.0708 27.2321 85.3036 27.2321H89.7679C91.0006 27.2321 92 26.2328 92 25C92 23.7672 91.0006 22.7679 89.7679 22.7679H85.3036C84.0708 22.7679 83.0714 23.7672 83.0714 25Z" fill="#FFAC00"/>
<path d="M67 8.92857C68.2328 8.92857 69.2321 7.92921 69.2321 6.69643V2.23214C69.2321 0.999364 68.2328 -5.38865e-08 67 0C65.7672 5.38865e-08 64.7679 0.999364 64.7679 2.23214V6.69643C64.7679 7.92921 65.7672 8.92857 67 8.92857Z" fill="#FFAC00"/>
<path d="M55.6358 13.6358C56.5075 12.7641 56.5075 11.3508 55.6358 10.4791L52.4791 7.32233C51.6074 6.45062 50.194 6.45062 49.3223 7.32233C48.4506 8.19403 48.4506 9.60735 49.3223 10.4791L52.4791 13.6358C53.3508 14.5075 54.7641 14.5075 55.6358 13.6358Z" fill="#FFAC00"/>
<path d="M55.6358 36.3642C54.7641 35.4925 53.3508 35.4925 52.4791 36.3642L49.3224 39.5209C48.4507 40.3926 48.4507 41.806 49.3224 42.6777C50.1941 43.5494 51.6074 43.5494 52.4791 42.6777L55.6358 39.5209C56.5075 38.6492 56.5075 37.2359 55.6358 36.3642Z" fill="#FFAC00"/>
<path d="M42 25C42 23.7672 42.9994 22.7679 44.2321 22.7679H48.6964C49.9292 22.7679 50.9286 23.7672 50.9286 25C50.9286 26.2328 49.9292 27.2321 48.6964 27.2321H44.2321C42.9994 27.2321 42 26.2328 42 25Z" fill="#FFAC00"/>
</svg>
