<svg width="38" height="28" viewBox="0 0 38 28" fill="none" xmlns="http://www.w3.org/2000/svg">
<path d="M29.9594 8.23066H37.8496V3.23066L29.9594 8.23066Z" fill="#FFAC00"/>
<path d="M29.9594 19.7691H34.0924H37.8496L37.8496 24.7691L29.9594 19.7691Z" fill="#FFAC00"/>
<path d="M8.91897 19.7691H0.277368V24.7691L8.91897 19.7691Z" fill="#FFAC00"/>
<path d="M8.91897 8.61527H0.277368V3.23066L8.91897 8.61527Z" fill="#FFAC00"/>
<path d="M35.5953 0.538348H24.3236V7.46143L35.5953 0.538348Z" fill="#FFAC00"/>
<path d="M35.5953 27.4614L24.3236 27.4614V24.7691V20.5383L35.5953 27.4614Z" fill="#FFAC00"/>
<path d="M2.5317 27.4614L14.1791 27.4614V20.1537L2.5317 27.4614Z" fill="#FFAC00"/>
<path d="M2.5317 0.538348H13.8034V7.46143L2.5317 0.538348Z" fill="#FFAC00"/>
<path d="M21.3706 27.4614H16.7564V13.9999V0.538348H21.3706V27.4614Z" fill="#FFAC00"/>
<path d="M0.277357 16.6922V11.3076L37.8496 11.3076L37.8496 16.6922L0.277357 16.6922Z" fill="#FFAC00"/>
</svg>
