<svg width="40" height="28" viewBox="0 0 40 28" fill="none" xmlns="http://www.w3.org/2000/svg">
<path d="M31 8.23066H39.0769V3.23066L31 8.23066Z" fill="#FFAC00"/>
<path d="M31 19.7691H35.2307H39.0769L39.0769 24.7691L31 19.7691Z" fill="#FFAC00"/>
<path d="M9.46152 19.7691H0.615372V24.7691L9.46152 19.7691Z" fill="#FFAC00"/>
<path d="M9.46152 8.61527H0.615372V3.23066L9.46152 8.61527Z" fill="#FFAC00"/>
<path d="M36.7692 0.538349H25.2307V7.46143L36.7692 0.538349Z" fill="#FFAC00"/>
<path d="M36.7692 27.4614L25.2307 27.4614V24.7691V20.5383L36.7692 27.4614Z" fill="#FFAC00"/>
<path d="M2.92307 27.4614L14.8461 27.4614V20.1537L2.92307 27.4614Z" fill="#FFAC00"/>
<path d="M2.92307 0.538349H14.4615V7.46143L2.92307 0.538349Z" fill="#FFAC00"/>
<path d="M22.2078 27.4614H17.4845V13.9999V0.538349H22.2078V27.4614Z" fill="#FFAC00"/>
<path d="M0.61536 16.6922V11.3076L39.0769 11.3076L39.0769 16.6922L0.61536 16.6922Z" fill="#FFAC00"/>
</svg>
