<svg width="50" height="51" viewBox="0 0 50 51" fill="none" xmlns="http://www.w3.org/2000/svg">
<path fill-rule="evenodd" clip-rule="evenodd" d="M19.7929 0.458984C15.3107 0.458984 11.6857 0.594699 7.93572 0.851841C5.97934 0.98408 4.13784 1.82335 2.75461 3.21316C1.37137 4.60297 0.540832 6.44843 0.417867 8.40541C0.137986 12.894 -0.00136756 17.3902 1.0115e-05 21.8876C1.0115e-05 26.5054 0.142867 31.0161 0.417867 35.3697C0.523535 37.055 1.15466 38.6649 2.22254 39.973C3.29042 41.2811 4.74137 42.2217 6.37144 42.6626C6.0914 38.1239 5.95205 33.5777 5.95358 29.0304C5.95358 24.3161 6.09644 19.7161 6.37858 15.2697C6.56918 12.2318 7.85797 9.36693 10.0047 7.20903C12.1514 5.05113 15.0096 3.74749 18.0464 3.54113C22 3.26811 25.962 3.1335 29.925 3.13756C29.5214 2.80898 29.1036 2.47684 28.6643 2.13756C27.3194 1.10681 25.6799 0.533605 23.9857 0.501842C22.6572 0.47327 21.2714 0.458984 19.7929 0.458984ZM18.3536 7.9947C22.3 7.7226 26.2549 7.59156 30.2107 7.60184C31.6893 7.60184 33.075 7.61613 34.4036 7.6447C36.0822 7.68041 37.7286 8.24113 39.0822 9.28398C42.1345 11.5799 44.8575 14.2837 47.175 17.3197C48.9964 19.6626 49.925 22.5411 49.9714 25.4483C50.062 31.1393 49.9322 36.8316 49.5822 42.5126C49.4584 44.4693 48.6277 46.3143 47.2446 47.704C45.8615 49.0936 44.0204 49.9331 42.0643 50.0661C38.3143 50.3233 34.6929 50.459 30.2072 50.459C25.725 50.459 22.1 50.3233 18.35 50.0661C16.3939 49.9331 14.5528 49.0936 13.1697 47.704C11.7866 46.3143 10.9559 44.4693 10.8322 42.5126C10.5535 38.0239 10.4153 33.5277 10.4179 29.0304C10.4179 24.4126 10.5607 19.9018 10.8322 15.5483C10.9553 13.5901 11.7869 11.7437 13.1716 10.3538C14.5563 8.96381 16.3995 8.12527 18.3572 7.9947H18.3536ZM32.4429 23.6733C32.4429 23.0813 32.2077 22.5135 31.7891 22.0949C31.3705 21.6763 30.8027 21.4411 30.2107 21.4411C29.6187 21.4411 29.051 21.6763 28.6324 22.0949C28.2138 22.5135 27.9786 23.0813 27.9786 23.6733V28.584H23.0643C22.4723 28.584 21.9045 28.8192 21.4859 29.2378C21.0673 29.6564 20.8322 30.2241 20.8322 30.8161C20.8322 31.4081 21.0673 31.9759 21.4859 32.3945C21.9045 32.8131 22.4723 33.0483 23.0643 33.0483H27.975V37.959C27.975 38.2521 28.0327 38.5424 28.1449 38.8132C28.2571 39.084 28.4215 39.3301 28.6288 39.5373C28.8361 39.7446 29.0821 39.909 29.3529 40.0212C29.6238 40.1334 29.914 40.1911 30.2072 40.1911C30.5003 40.1911 30.7905 40.1334 31.0614 40.0212C31.3322 39.909 31.5782 39.7446 31.7855 39.5373C31.9928 39.3301 32.1572 39.084 32.2694 38.8132C32.3816 38.5424 32.4393 38.2521 32.4393 37.959V33.0483H37.35C37.942 33.0483 38.5098 32.8131 38.9284 32.3945C39.347 31.9759 39.5822 31.4081 39.5822 30.8161C39.5822 30.2241 39.347 29.6564 38.9284 29.2378C38.5098 28.8192 37.942 28.584 37.35 28.584H32.4429V23.6733Z" fill="#0F051C"/>
</svg>
