<svg width="44" height="57" viewBox="0 0 44 57" fill="none" xmlns="http://www.w3.org/2000/svg">
<path fill-rule="evenodd" clip-rule="evenodd" d="M41.5922 27.8396C42.2096 27.496 42.3931 26.6928 41.986 26.1151L36.28 18.0168C36.0571 17.7005 35.6945 17.5123 35.3076 17.5123H8.70671C8.3198 17.5123 7.95708 17.7005 7.73424 18.0168L2.02263 26.1229C1.6148 26.7018 1.79974 27.5065 2.41937 27.8493L2.63783 27.9702L12.8872 33.5005C13.2867 33.7161 13.7741 33.6856 14.1435 33.4218L20.9619 28.5514C21.5824 28.1082 22.4159 28.1082 23.0364 28.5514L29.8546 33.4215C30.2241 33.6854 30.7114 33.7161 31.1111 33.5005L41.3557 27.9714L41.5922 27.8396ZM44 31.6352C44 31.1636 43.4935 30.866 43.0816 31.0953L43.0611 31.1065L32.7357 36.6792C32.3507 36.8869 32.1109 37.2888 32.1109 37.7261V54.9857C32.1109 55.6426 32.6436 56.1753 33.3005 56.1753H42.2156C42.6888 56.1753 43.1427 55.9873 43.4773 55.6526C43.812 55.318 44 54.8641 44 54.3908V31.6352ZM27.3524 56.1753C28.0095 56.1753 28.542 55.6426 28.542 54.9857V37.4822C28.542 37.098 28.3566 36.7373 28.044 36.5141L22.6907 32.6901C22.2769 32.3949 21.7214 32.3949 21.3076 32.6901L15.9543 36.5141C15.6417 36.7373 15.4562 37.098 15.4562 37.4822V54.9857C15.4562 55.6426 15.9888 56.1753 16.6458 56.1753H27.3524ZM10.6977 56.1753C11.3547 56.1753 11.8873 55.6426 11.8873 54.9857V37.7263C11.8873 37.289 11.6474 36.8869 11.2626 36.6792L0.935047 31.1065L0.918821 31.0977C0.918845 31.0977 0.918845 31.0977 0.918821 31.0977L0.580038 30.9102C0.319534 30.7663 0 30.9547 0 31.2524V54.3908C0 55.3763 0.798906 56.1753 1.78444 56.1753H10.6977ZM25.4109 2.59044L32.089 12.0686C32.6443 12.8567 32.0806 13.9435 31.1166 13.9435H12.8977C11.9336 13.9435 11.3699 12.8567 11.9252 12.0686L18.6034 2.59044C20.2622 0.236457 23.7523 0.23645 25.4109 2.59044Z" fill="#0F051C"/>
</svg>
