<svg width="58" height="40" viewBox="0 0 58 40" fill="none" xmlns="http://www.w3.org/2000/svg">
<path d="M28.7357 12.2189C28.7977 10.1823 28.2115 8.17869 27.0615 6.49672C25.9301 5.12665 24.4861 4.04838 22.8511 3.35264C21.2162 2.6569 19.438 2.36404 17.6662 2.49871H1.24938C0.918023 2.49871 0.600239 2.63034 0.365935 2.86464C0.131631 3.09895 0 3.41673 0 3.74809V38.7307C0 39.0621 0.131631 39.3798 0.365935 39.6142C0.600239 39.8485 0.918023 39.9801 1.24938 39.9801H16.4668C18.2034 39.9895 19.9365 39.822 21.6392 39.4803C23.1498 39.1423 24.5612 38.4579 25.7622 37.4813C26.7755 36.6668 27.6237 35.666 28.2609 34.5328C29.3528 32.7343 29.9157 30.6645 29.8851 28.5608C29.942 26.6303 29.448 24.7235 28.4608 23.0635C27.4519 21.6232 26.0064 20.5457 24.3379 19.99C25.3983 19.468 26.3484 18.7469 27.1365 17.8661C28.3176 16.2306 28.8839 14.2308 28.7357 12.2189ZM7.49627 11.2444C7.49627 10.913 7.6279 10.5952 7.86221 10.3609C8.09651 10.1266 8.4143 9.99498 8.74565 9.99498H17.4913C18.4854 9.99498 19.4387 10.3899 20.1416 11.0928C20.8445 11.7957 21.2394 12.7491 21.2394 13.7431C21.2394 14.7372 20.8445 15.6905 20.1416 16.3935C19.4387 17.0964 18.4854 17.4913 17.4913 17.4913H8.74565C8.4143 17.4913 8.09651 17.3596 7.86221 17.1253C7.6279 16.891 7.49627 16.5732 7.49627 16.2419V11.2444ZM22.4888 27.4863C22.4888 28.8117 21.9623 30.0829 21.0251 31.0201C20.0879 31.9573 18.8167 32.4838 17.4913 32.4838H8.74565C8.4143 32.4838 8.09651 32.3522 7.86221 32.1179C7.6279 31.8836 7.49627 31.5658 7.49627 31.2344V23.7382C7.49627 23.5741 7.52859 23.4116 7.59138 23.26C7.65416 23.1085 7.74619 22.9707 7.86221 22.8547C7.97822 22.7387 8.11595 22.6467 8.26754 22.5839C8.41912 22.5211 8.58158 22.4888 8.74565 22.4888H17.4913C18.1476 22.4888 18.7974 22.618 19.4038 22.8692C20.0101 23.1203 20.561 23.4885 21.0251 23.9525C21.4891 24.4166 21.8573 24.9675 22.1084 25.5738C22.3596 26.1802 22.4888 26.83 22.4888 27.4863Z" fill="#0F051C"/>
<path d="M38.7308 0H51.2246C51.2246 0 52.474 4.2894e-07 52.474 1.24938V3.74814C52.474 3.74814 52.474 4.99752 51.2246 4.99752H38.7308C38.7308 4.99752 37.4814 4.99752 37.4814 3.74814V1.24938C37.4814 1.24938 37.4814 0 38.7308 0Z" fill="#0F051C"/>
<path d="M56.222 27.4863C56.548 27.4883 56.8618 27.3627 57.0965 27.1365C57.2172 27.0202 57.3128 26.8803 57.3773 26.7256C57.4417 26.5709 57.4738 26.4046 57.4713 26.2369C57.4918 24.8591 57.4166 23.4815 57.2464 22.114C56.969 20.1121 56.243 18.1988 55.1225 16.5168C54.016 14.7647 52.4286 13.3681 50.5498 12.4938C48.8224 11.6281 46.9092 11.1991 44.9775 11.2444C41.2833 11.1348 37.6938 12.4809 34.9825 14.9925C32.3571 17.9549 31.0098 21.8352 31.2344 25.7872C31.0458 27.7869 31.3119 29.8034 32.013 31.6858C32.714 33.5681 33.8317 35.2675 35.2824 36.6568C38.0306 38.8559 41.4581 40.0308 44.9775 39.9801C46.8672 40.0832 48.7573 39.7846 50.5231 39.1041C52.289 38.4236 53.8906 37.3766 55.2224 36.0321C55.6972 35.4823 56.122 34.9576 56.4968 34.4329C56.6245 34.2439 56.6981 34.0237 56.7096 33.7959C56.721 33.5681 56.6699 33.3416 56.5618 33.1408C56.4537 32.94 56.2927 32.7726 56.0962 32.6568C55.8998 32.541 55.6754 32.4812 55.4473 32.4838H50.3249C49.9999 32.487 49.6878 32.6118 49.4503 32.8337L49.3004 32.9836C47.9589 33.8591 46.3783 34.2958 44.7776 34.233C43.4302 34.2753 42.1003 33.9189 40.9545 33.2085C40.2539 32.725 39.6673 32.0944 39.2358 31.3607C38.8042 30.6269 38.538 29.8078 38.4558 28.9606C38.42 28.7802 38.4261 28.594 38.4738 28.4163C38.5215 28.2387 38.6093 28.0744 38.7306 27.9361C38.8456 27.7954 38.9905 27.682 39.1547 27.6042C39.319 27.5264 39.4984 27.4861 39.6802 27.4863H56.222ZM39.9051 22.4888C39.7445 22.4857 39.5866 22.4467 39.443 22.3746C39.2995 22.3024 39.174 22.199 39.0757 22.072C38.9774 21.9449 38.9088 21.7974 38.8751 21.6404C38.8413 21.4833 38.8432 21.3207 38.8806 21.1645C39.1899 19.7781 39.9624 18.5386 41.0708 17.6503C42.1791 16.762 43.5571 16.278 44.9775 16.278C46.3979 16.278 47.7759 16.762 48.8843 17.6503C49.9927 18.5386 50.7652 19.7781 51.0745 21.1645C51.1119 21.3207 51.1138 21.4833 51.08 21.6404C51.0463 21.7974 50.9777 21.9449 50.8794 22.072C50.7811 22.199 50.6556 22.3024 50.512 22.3746C50.3685 22.4467 50.2106 22.4857 50.05 22.4888H39.9051Z" fill="#0F051C"/>
</svg>
