<svg width="68" height="56" viewBox="0 0 68 56" fill="none" xmlns="http://www.w3.org/2000/svg">
<path d="M67.0225 28.1643C67.1323 24.7419 66.1612 21.3719 64.2468 18.5328C62.9212 16.5918 61.1846 14.9664 59.1602 13.772C57.1359 12.5775 54.8735 11.8433 52.5335 11.6214C52.4257 11.6109 52.3219 11.5753 52.2303 11.5174C52.1387 11.4596 52.062 11.3811 52.0061 11.2883C49.8156 7.61556 46.571 4.6866 42.694 2.88197C38.8171 1.07734 34.487 0.480486 30.2663 1.16895C26.0457 1.85742 22.1298 3.79938 19.0273 6.74251C15.9248 9.68563 13.7792 13.4938 12.8693 17.6723C12.8212 17.7974 12.738 17.9059 12.6296 17.9847C12.5213 18.0635 12.3924 18.1092 12.2586 18.1164C10.1887 18.2785 8.18809 18.9355 6.42503 20.0319C4.66197 21.1284 3.1881 22.6323 2.12743 24.4172C0.925963 26.4771 0.329517 28.8341 0.406518 31.2176C0.3744 32.8092 0.662528 34.3912 1.25379 35.8693C1.84504 37.3474 2.72737 38.6917 3.84834 39.8221C6.57834 42.2571 10.0995 43.6182 13.7575 43.6525H15.7282C16.4643 43.6525 17.1703 43.3601 17.6909 42.8396C18.2114 42.319 18.5039 41.613 18.5039 40.8769C18.5039 40.1407 18.2114 39.4347 17.6909 38.9142C17.1703 38.3936 16.4643 38.1012 15.7282 38.1012H13.7575C11.5585 38.0276 9.44365 37.2382 7.73428 35.8529C7.11203 35.1974 6.63281 34.4197 6.32701 33.5692C6.02121 32.7187 5.8955 31.8139 5.95785 30.9122C5.9468 29.9625 6.12479 29.02 6.48146 28.1397C6.83814 27.2594 7.36637 26.4589 8.0354 25.7847C8.70443 25.1105 9.5009 24.5761 10.3784 24.2127C11.256 23.8492 12.197 23.664 13.1468 23.6677C13.6418 23.6698 14.135 23.7256 14.6179 23.8343C15.0259 23.9177 15.4474 23.9082 15.8512 23.8065C16.2549 23.7049 16.6307 23.5137 16.9506 23.2471C17.2704 22.9806 17.5262 22.6455 17.699 22.2666C17.8718 21.8878 17.9572 21.4749 17.9487 21.0586C18.1985 5.15406 40.9867 0.601967 47.9814 15.5073C48.2142 15.997 48.5854 16.4079 49.0491 16.689C49.5128 16.9702 50.0487 17.1094 50.5906 17.0894C52.4159 17.0159 54.2289 17.4202 55.85 18.2624C57.4711 19.1046 58.8443 20.3555 59.8335 21.8913C60.8946 23.5491 61.4626 25.4744 61.4712 27.4427C61.5414 29.7769 60.8119 32.0652 59.4034 33.928C57.9949 35.7908 55.9921 37.1163 53.7271 37.6849C53.137 37.863 52.6231 38.2325 52.2662 38.7351C51.9094 39.2377 51.73 39.8447 51.7563 40.4605C51.7681 40.8775 51.8736 41.2864 52.0652 41.657C52.2567 42.0275 52.5293 42.3501 52.8627 42.6008C53.196 42.8515 53.5816 43.0238 53.9908 43.105C54.3999 43.1862 54.8221 43.1741 55.2259 43.0696C58.5737 42.2581 61.5536 40.3499 63.6914 37.6487C65.8291 34.9476 67.0017 31.609 67.0225 28.1643Z" fill="#0F051C"/>
<path d="M37.878 35.7574C37.6957 35.7574 37.5153 35.7215 37.3469 35.6518C37.1785 35.5821 37.0255 35.4798 36.8966 35.351C36.7678 35.2221 36.6655 35.0691 36.5958 34.9007C36.526 34.7323 36.4901 34.5519 36.4901 34.3696V26.0426C36.4901 25.6745 36.3439 25.3215 36.0837 25.0613C35.8234 24.801 35.4704 24.6548 35.1023 24.6548H23.9997C23.6316 24.6548 23.2786 24.801 23.0183 25.0613C22.758 25.3215 22.6118 25.6745 22.6118 26.0426V53.7993C22.6118 54.1674 22.758 54.5204 23.0183 54.7806C23.2786 55.0409 23.6316 55.1871 23.9997 55.1871H46.205C46.5731 55.1871 46.9261 55.0409 47.1863 54.7806C47.4466 54.5204 47.5928 54.1674 47.5928 53.7993V37.1453C47.5928 36.963 47.5569 36.7826 47.4872 36.6142C47.4174 36.4458 47.3152 36.2928 47.1863 36.1639C47.0574 36.0351 46.9045 35.9328 46.7361 35.8631C46.5677 35.7933 46.3872 35.7574 46.205 35.7574H37.878Z" fill="#0F051C"/>
<path d="M39.9598 34.1786H45.0948C45.2346 34.1823 45.3724 34.1437 45.4899 34.0677C45.6074 33.9917 45.6991 33.882 45.7532 33.7529C45.8072 33.6238 45.821 33.4815 45.7926 33.3444C45.7643 33.2074 45.6952 33.0822 45.5944 32.9851L40.4594 27.8501C40.364 27.7511 40.2413 27.6827 40.1069 27.6535C39.9725 27.6243 39.8325 27.6357 39.7046 27.6863C39.5767 27.7369 39.4667 27.8243 39.3886 27.9375C39.3105 28.0506 39.2678 28.1845 39.2659 28.322V33.6235C39.2983 33.7826 39.3855 33.9253 39.5123 34.0267C39.6391 34.1282 39.7974 34.1819 39.9598 34.1786Z" fill="#0F051C"/>
</svg>
