<svg width="50" height="50" viewBox="0 0 50 50" fill="none" xmlns="http://www.w3.org/2000/svg">
<path d="M49.4101 17.8177L37.5108 5.81426C37.2948 5.6021 37.0352 5.43956 36.75 5.33793C36.4648 5.23631 36.1609 5.19806 35.8594 5.22582C35.5579 5.25359 35.2661 5.34672 35.0043 5.49873C34.7424 5.65073 34.5168 5.85797 34.3432 6.10601L24.9655 19.464C24.654 19.8449 24.4873 20.3237 24.4949 20.8158C24.5025 21.3078 24.684 21.7812 25.0072 22.1523L32.9887 30.1337C33.3368 30.4845 33.7983 30.7001 34.2907 30.7421C34.7831 30.7841 35.2745 30.6497 35.677 30.363L49.035 20.9853C49.2889 20.8184 49.5033 20.5979 49.6631 20.3394C49.8229 20.0809 49.9242 19.7906 49.9599 19.4888C49.9957 19.187 49.965 18.8811 49.87 18.5924C49.775 18.3037 49.618 18.0393 49.4101 17.8177Z" fill="#0F051C"/>
<path d="M21.9854 23.2567C21.8368 23.1049 21.6444 23.0032 21.4352 22.9659C21.2261 22.9285 21.0104 22.9573 20.8184 23.0483L9.81525 28.0289C9.63276 28.1134 9.4786 28.2488 9.37137 28.4189C9.26414 28.589 9.20841 28.7865 9.21091 28.9875C9.21091 29.1126 9.21091 42.7207 5.37648 48.389C5.25404 48.5923 5.20318 48.8307 5.23198 49.0662C5.26078 49.3018 5.3676 49.521 5.53541 49.6888C5.70322 49.8566 5.92237 49.9634 6.15794 49.9922C6.3935 50.021 6.63193 49.9701 6.83523 49.8477C12.5035 46.0549 26.1116 46.0133 26.2366 46.0133C26.4377 46.0158 26.6352 45.96 26.8053 45.8528C26.9754 45.7456 27.1108 45.5914 27.1952 45.4089L32.1758 34.4058C32.2668 34.2137 32.2957 33.9981 32.2583 33.7889C32.221 33.5797 32.1193 33.3874 31.9674 33.2388L21.9854 23.2567ZM23.1941 37.8443C22.611 38.4267 21.8684 38.8232 21.06 38.9836C20.2517 39.1441 19.4139 39.0612 18.6526 38.7457C17.8913 38.4301 17.2406 37.8959 16.7828 37.2106C16.3251 36.5253 16.0807 35.7196 16.0807 34.8955C16.0807 34.0714 16.3251 33.2657 16.7828 32.5804C17.2406 31.8951 17.8913 31.3609 18.6526 31.0453C19.4139 30.7297 20.2517 30.6469 21.06 30.8074C21.8684 30.9678 22.611 31.3643 23.1941 31.9467C23.5943 32.3352 23.9124 32.8001 24.1296 33.3137C24.3469 33.8274 24.4588 34.3795 24.4588 34.9372C24.4588 35.4949 24.3469 36.0469 24.1296 36.5606C23.9124 37.0743 23.5943 37.5391 23.1941 37.9276V37.8443Z" fill="#0F051C"/>
<path d="M7.29376 17.1924C7.29376 17.8833 7.5682 18.5459 8.05672 19.0344C8.54524 19.5229 9.20781 19.7973 9.89867 19.7973C10.5895 19.7973 11.2521 19.5229 11.7406 19.0344C12.2291 18.5459 12.5036 17.8833 12.5036 17.1924V13.0246C12.5036 12.8864 12.5585 12.7539 12.6562 12.6562C12.7539 12.5585 12.8864 12.5036 13.0246 12.5036H17.1924C17.8833 12.5036 18.5459 12.2291 19.0344 11.7406C19.5229 11.2521 19.7973 10.5895 19.7973 9.89867C19.7973 9.20781 19.5229 8.54524 19.0344 8.05672C18.5459 7.5682 17.8833 7.29376 17.1924 7.29376H13.0246C12.8864 7.29376 12.7539 7.23887 12.6562 7.14117C12.5585 7.04346 12.5036 6.91095 12.5036 6.77278V2.60491C12.5036 1.91405 12.2291 1.25148 11.7406 0.762962C11.2521 0.274446 10.5895 0 9.89867 0C9.20781 0 8.54524 0.274446 8.05672 0.762962C7.5682 1.25148 7.29376 1.91405 7.29376 2.60491V6.77278C7.29376 6.91095 7.23887 7.04346 7.14117 7.14117C7.04346 7.23887 6.91095 7.29376 6.77278 7.29376H2.60491C1.91405 7.29376 1.25148 7.5682 0.762962 8.05672C0.274446 8.54524 0 9.20781 0 9.89867C0 10.5895 0.274446 11.2521 0.762962 11.7406C1.25148 12.2291 1.91405 12.5036 2.60491 12.5036H6.77278C6.91095 12.5036 7.04346 12.5585 7.14117 12.6562C7.23887 12.7539 7.29376 12.8864 7.29376 13.0246V17.1924Z" fill="#0F051C"/>
</svg>
