<svg width="130" height="50" viewBox="0 0 130 50" fill="none" xmlns="http://www.w3.org/2000/svg">
<rect width="130" height="50" rx="25" fill="#0F051C"/>
<path d="M118.728 25.7143L96.1849 9.23077V42.1978L118.728 25.7143Z" fill="#FFAC00"/>
<path d="M73.6416 25.7143L96.1849 42.1978V9.23077L73.6416 25.7143Z" fill="#FFAC00"/>
<path d="M85.2353 25.7143C85.2353 31.9047 90.1376 36.9231 96.1849 36.9231C102.232 36.9231 107.135 31.9047 107.135 25.7143C107.135 19.5238 102.232 14.5055 96.1849 14.5055C90.1376 14.5055 85.2353 19.5238 85.2353 25.7143Z" fill="#0F051C"/>
<path d="M43.8256 19.0196L43.0979 19.4808H43.9594H51.8496H52.0996V19.2308V14.2308V13.7764L51.7158 14.0196L43.8256 19.0196ZM43.9594 30.5192H43.0979L43.8256 30.9804L51.7158 35.9804L52.0996 36.2236L52.0996 35.7692L52.0996 30.7692L52.0996 30.5192H51.8496H48.0924H43.9594ZM23.0442 30.9856L23.8502 30.5192H22.919H14.2774H14.0274V30.7692V35.7692V36.2027L14.4026 35.9856L23.0442 30.9856ZM22.919 19.8654H23.7929L23.0512 19.4032L14.4096 14.0186L14.0274 13.7804V14.2308V19.6154V19.8654H14.2774H22.919ZM49.7261 11.7515L50.48 11.2885H49.5953H38.3236H38.0736V11.5385V18.4615V18.9085L38.4544 18.6746L49.7261 11.7515ZM49.5953 38.7115L50.48 38.7115L49.7261 38.2485L38.4544 31.3254L38.0736 31.0915V31.5385V35.7692V38.4615V38.7115H38.3236L49.5953 38.7115ZM16.3988 38.2498L15.6628 38.7115L16.5317 38.7115L28.1791 38.7115H28.4291V38.4615V31.1539V30.7019L28.0462 30.9421L16.3988 38.2498ZM16.5317 11.2885H15.647L16.4009 11.7515L27.6725 18.6746L28.0534 18.9085V18.4615V11.5385V11.2885H27.8034H16.5317ZM35.3706 38.7115H35.6206V38.4615V27.9423L51.8496 27.9423H52.0996L52.0996 27.6923L52.0996 22.3077L52.0996 22.0577H51.8496H35.6206V11.5385V11.2885H35.3706H30.7564H30.5064V11.5385V22.0577H14.2774H14.0274V22.3077V27.6923V27.9423H14.2774L30.5064 27.9423V38.4615V38.7115H30.7564H35.3706Z" stroke="#FFAC00" stroke-width="0.5"/>
</svg>
