<svg width="46" height="50" viewBox="0 0 46 50" fill="none" xmlns="http://www.w3.org/2000/svg">
<path fill-rule="evenodd" clip-rule="evenodd" d="M8.46517 8.5202C9.38661 7.57035 9.89741 6.29614 9.8871 4.9728C9.83914 3.6891 9.3026 2.47221 8.38724 1.57092C7.47187 0.669636 6.2468 0.152042 4.9625 0.123962C3.67443 0.151527 2.44505 0.66784 1.52354 1.56824C0.602044 2.46863 0.0573906 3.68572 0 4.9728C0.0185377 6.29387 0.543878 7.55726 1.46745 8.50199C2.39101 9.44672 3.64222 10.0005 4.9625 10.049C6.28552 10.0191 7.54369 9.47001 8.46517 8.5202ZM4.04027 16.5888C1.95505 16.5416 0.530343 16.5093 0.530343 19.0648V47.476C0.530343 49.9787 1.88892 49.9268 3.84668 49.8524C4.20055 49.8389 4.57397 49.8247 4.9625 49.8247C5.35174 49.8247 5.72491 49.8389 6.07785 49.8524C8.02623 49.9268 9.35678 49.9776 9.35678 47.476V19.0648C9.35678 16.5099 7.96173 16.5416 5.88444 16.5888C5.59016 16.5955 5.28216 16.6025 4.9625 16.6025C4.64333 16.6025 4.33519 16.5955 4.04027 16.5888ZM18.562 16.6404C17.6149 16.8298 17.0088 17.4359 17.0088 19.0648V47.476C17.0088 49.9762 18.3107 49.9271 20.272 49.8524C20.6285 49.8389 21.0069 49.8247 21.4031 49.8247C21.7987 49.8247 22.1772 49.8389 22.5347 49.8524C24.5054 49.9271 25.8353 49.9772 25.8353 47.476V32.3234C25.7599 31.5491 25.8499 30.7677 26.0992 30.0307C26.3486 29.2939 26.7516 28.6183 27.2817 28.0489C27.8117 27.4794 28.4566 27.0291 29.1738 26.7276C29.891 26.4262 30.664 26.2805 31.4418 26.3002C32.2231 26.2539 33.0052 26.3763 33.7352 26.659C34.4651 26.9417 35.1253 27.3782 35.6718 27.9388C36.2179 28.4994 36.637 29.171 36.9008 29.9079C37.1643 30.6449 37.2663 31.4299 37.1999 32.2098V47.3623C37.1999 49.8628 38.5018 49.8133 40.463 49.739C40.8196 49.7255 41.1979 49.7109 41.5939 49.7109C41.9903 49.7109 42.3686 49.7255 42.7252 49.739C44.6864 49.8133 45.9883 49.8628 45.9883 47.3623V27.967C46.0605 26.3746 45.7967 24.7848 45.214 23.3009C44.6316 21.817 43.7435 20.4723 42.6076 19.3541C41.4713 18.2358 40.1128 17.3691 38.6199 16.8102C37.127 16.2514 35.5331 16.0128 33.9421 16.1101C32.3216 15.9627 30.6906 16.2337 29.2049 16.8969C27.7192 17.5602 26.4286 18.5936 25.4565 19.8982C25.4943 18.4966 25.0397 16.6404 23.9033 16.6404C23.5774 16.6404 23.0771 16.6249 22.5069 16.6071C21.0886 16.5629 19.2375 16.5053 18.562 16.6404Z" fill="#0F051C"/>
</svg>
