<svg width="50" height="50" viewBox="0 0 50 50" fill="none" xmlns="http://www.w3.org/2000/svg">
<path d="M25 0C38.807 0 50 11.1929 50 25C50 38.807 38.807 50 25 50C20.4153 50 16.1188 48.766 12.4247 46.6118L0.0104502 50L3.39035 37.5788C1.2349 33.884 0 29.5863 0 25C0 11.1929 11.1929 0 25 0ZM15.9783 13.2708C15.6549 13.2936 15.3377 13.3726 15.049 13.5203C14.8323 13.6311 14.6312 13.7913 14.3153 14.0897C14.0169 14.3714 13.844 14.6174 13.6618 14.8547C12.7375 16.058 12.2408 17.5351 12.25 19.0525C12.255 20.279 12.5736 21.471 13.0768 22.584C14.0971 24.841 15.7797 27.227 18.0024 29.4398C18.5363 29.9713 19.0594 30.5085 19.6234 31.005C22.382 33.434 25.6695 35.1855 29.2243 36.1205C29.2243 36.1205 30.6243 36.3355 30.6448 36.3368C31.1085 36.3618 31.5715 36.3283 32.0358 36.3045C32.764 36.267 33.475 36.07 34.1185 35.7273C34.5323 35.507 34.728 35.3975 35.0753 35.1785C35.0753 35.1785 35.1818 35.1065 35.3873 34.9535C35.7248 34.702 35.9333 34.525 36.214 34.2335C36.421 34.0185 36.599 33.7645 36.7365 33.4783C36.932 33.0703 37.1288 32.2915 37.207 31.6448C37.2668 31.1508 37.2488 30.8808 37.2423 30.7135C37.2315 30.4445 37.0093 30.1678 36.7658 30.0503L35.312 29.3968C35.312 29.3968 33.1383 28.4508 31.8088 27.8443C31.6703 27.781 31.5188 27.7518 31.3665 27.7425C31.033 27.722 30.6593 27.809 30.4215 28.0595C30.409 28.0545 30.2435 28.1975 28.4348 30.3888C28.335 30.508 28.1013 30.7673 27.697 30.743C27.636 30.7388 27.5753 30.73 27.516 30.7145C27.3523 30.6713 27.1928 30.6143 27.0368 30.5483C26.7275 30.417 26.619 30.3673 26.4078 30.2763C24.9645 29.6458 23.64 28.8022 22.4693 27.77C22.1553 27.4935 21.8633 27.1958 21.5623 26.904C20.5118 25.8858 19.6518 24.8028 19.012 23.7345C18.977 23.6763 18.9232 23.592 18.8652 23.4978C18.7606 23.3275 18.6451 23.125 18.6089 22.986C18.516 22.6183 18.7625 22.3228 18.7625 22.3228C18.7625 22.3228 19.371 21.6575 19.6537 21.2957C19.9257 20.9475 20.1605 20.607 20.31 20.3643C20.6045 19.8908 20.6978 19.4016 20.543 19.0241C19.8416 17.3141 19.118 15.6134 18.3722 13.9224C18.225 13.5886 17.7872 13.3462 17.389 13.3002C17.2542 13.2846 17.1194 13.2689 16.984 13.26C16.6489 13.2437 16.313 13.2473 15.9783 13.2708Z" fill="#0F051C"/>
</svg>
