<svg width="200" height="200" viewBox="0 0 200 200" fill="none" xmlns="http://www.w3.org/2000/svg">
<circle cx="100" cy="100" r="90" stroke="#FFAC00" stroke-opacity="0.3" stroke-width="20"/>
<path d="M190 99.4588C190 118.465 183.983 136.983 172.812 152.36C161.64 167.736 145.887 179.181 127.812 185.054C109.736 190.927 90.2644 190.927 72.1885 185.054C54.1126 179.181 38.36 167.736 27.1885 152.36C16.0169 136.983 10 118.465 10 99.4588C10 80.4527 16.0169 61.9345 27.1885 46.5582C38.36 31.1819 55.4241 19.737 73.5 13.8637C91.5759 7.99053 110.424 8.58567 128.5 14.4589" stroke="#FFAC00" stroke-opacity="0.7" stroke-width="20" stroke-linecap="round"/>
<circle cx="100" cy="100" r="65" stroke="#00A316" stroke-opacity="0.3" stroke-width="20"/>
<path d="M165 100C165 113.727 160.654 127.101 152.586 138.206C144.518 149.311 133.141 157.577 120.086 161.819C107.031 166.06 92.9687 166.06 79.9139 161.819C66.8591 157.577 55.4822 149.311 47.4139 138.206C39.3456 127.101 35 113.727 35 100C35 86.2733 39.3456 72.899 47.4139 61.7939" stroke="#00A316" stroke-opacity="0.7" stroke-width="20" stroke-linecap="round"/>
<circle cx="100" cy="100" r="40" stroke="#D70004" stroke-opacity="0.3" stroke-width="20"/>
<path d="M140 100.062C140 106.523 138.506 112.891 135.64 118.648C132.774 124.404 128.618 129.384 123.511 133.182C118.405 136.979 112.492 139.485 106.257 140.496C100.023 141.507 93.6428 140.993 87.6393 138.996C81.6359 137 76.1793 133.578 71.7157 129.01C67.2522 124.442 63.9084 118.857 61.9577 112.713C60.0071 106.569 59.505 100.039 60.4925 93.6584C61.48 87.2776 63.929 81.2265 67.6393 76" stroke="#D70004" stroke-opacity="0.7" stroke-width="18.75" stroke-linecap="round"/>
</svg>
