<svg width="50" height="50" viewBox="0 0 50 50" fill="none" xmlns="http://www.w3.org/2000/svg">
<path fill-rule="evenodd" clip-rule="evenodd" d="M19.7929 0C15.3107 0 11.6857 0.135714 7.93572 0.392857C5.97934 0.525095 4.13784 1.36437 2.75461 2.75418C1.37137 4.14398 0.540832 5.98944 0.417867 7.94643C0.137986 12.435 -0.00136756 16.9313 1.0115e-05 21.4286C1.0115e-05 26.0464 0.142867 30.5571 0.417867 34.9107C0.523535 36.596 1.15466 38.2059 2.22254 39.514C3.29042 40.8221 4.74137 41.7627 6.37144 42.2036C6.0914 37.6649 5.95205 33.1187 5.95358 28.5714C5.95358 23.8571 6.09644 19.2571 6.37858 14.8107C6.56918 11.7728 7.85797 8.90794 10.0047 6.75005C12.1514 4.59215 15.0096 3.28851 18.0464 3.08214C22 2.80912 25.962 2.67452 29.925 2.67857C29.5214 2.35 29.1036 2.01786 28.6643 1.67857C27.3194 0.647825 25.6799 0.0746208 23.9857 0.0428571C22.6572 0.0142857 21.2714 0 19.7929 0ZM18.3536 7.53571C22.3 7.26362 26.2549 7.13258 30.2107 7.14286C31.6893 7.14286 33.075 7.15714 34.4036 7.18571C36.0822 7.22143 37.7286 7.78214 39.0822 8.825C42.1345 11.1209 44.8575 13.8247 47.175 16.8607C48.9964 19.2036 49.925 22.0821 49.9714 24.9893C50.062 30.6803 49.9322 36.3726 49.5822 42.0536C49.4584 44.0103 48.6277 45.8553 47.2446 47.245C45.8615 48.6346 44.0204 49.4742 42.0643 49.6071C38.3143 49.8643 34.6929 50 30.2072 50C25.725 50 22.1 49.8643 18.35 49.6071C16.3939 49.4742 14.5528 48.6346 13.1697 47.245C11.7866 45.8553 10.9559 44.0103 10.8322 42.0536C10.5535 37.5649 10.4153 33.0687 10.4179 28.5714C10.4179 23.9536 10.5607 19.4429 10.8322 15.0893C10.9553 13.1312 11.7869 11.2848 13.1716 9.8948C14.5563 8.50483 16.3995 7.66629 18.3572 7.53571H18.3536ZM32.4429 23.2143C32.4429 22.6223 32.2077 22.0545 31.7891 21.6359C31.3705 21.2173 30.8027 20.9821 30.2107 20.9821C29.6187 20.9821 29.051 21.2173 28.6324 21.6359C28.2138 22.0545 27.9786 22.6223 27.9786 23.2143V28.125H23.0643C22.4723 28.125 21.9045 28.3602 21.4859 28.7788C21.0673 29.1974 20.8322 29.7651 20.8322 30.3571C20.8322 30.9491 21.0673 31.5169 21.4859 31.9355C21.9045 32.3541 22.4723 32.5893 23.0643 32.5893H27.975V37.5C27.975 37.7931 28.0327 38.0834 28.1449 38.3542C28.2571 38.625 28.4215 38.8711 28.6288 39.0784C28.8361 39.2856 29.0821 39.4501 29.3529 39.5622C29.6238 39.6744 29.914 39.7321 30.2072 39.7321C30.5003 39.7321 30.7905 39.6744 31.0614 39.5622C31.3322 39.4501 31.5782 39.2856 31.7855 39.0784C31.9928 38.8711 32.1572 38.625 32.2694 38.3542C32.3816 38.0834 32.4393 37.7931 32.4393 37.5V32.5893H37.35C37.942 32.5893 38.5098 32.3541 38.9284 31.9355C39.347 31.5169 39.5822 30.9491 39.5822 30.3571C39.5822 29.7651 39.347 29.1974 38.9284 28.7788C38.5098 28.3602 37.942 28.125 37.35 28.125H32.4429V23.2143Z" fill="#0F051C"/>
</svg>
