<svg width="50" height="51" viewBox="0 0 50 51" fill="none" xmlns="http://www.w3.org/2000/svg">
<path fill-rule="evenodd" clip-rule="evenodd" d="M24.9965 6.2495C18.7224 6.2495 12.6571 6.46946 7.01529 7.18413C6.70882 7.22296 6.4691 7.44417 6.40117 7.72549C5.62924 10.9218 5.35791 13.3913 5.35791 19.7298C5.35791 24.8176 5.84737 27.4256 6.36173 30.1662C6.44117 30.5895 6.52126 31.0162 6.60019 31.4555C6.69685 31.9935 7.07933 32.272 7.38623 32.3085C12.9351 32.9692 18.8824 33.2101 25.0035 33.2101C31.1245 33.2101 37.065 32.9692 42.614 32.3086C42.9208 32.272 43.3033 31.9935 43.3998 31.4555C43.4787 31.0161 43.5587 30.5896 43.6384 30.1662C44.1527 27.4256 44.6421 24.8176 44.6421 19.7298C44.6421 13.3913 44.371 10.9218 43.5991 7.72549C43.5309 7.44417 43.2912 7.223 42.9847 7.18417C37.3418 6.46946 31.2708 6.2495 24.9965 6.2495ZM6.34198 1.86871C12.301 1.11385 18.6176 0.891602 24.9965 0.891602C31.3755 0.891602 37.6975 1.11385 43.658 1.86874C46.1527 2.18469 48.2122 4.00445 48.807 6.46775C49.72 10.248 50 13.1915 50 19.7298C50 25.3242 49.4331 28.3418 48.9041 31.1563C48.8259 31.5737 48.748 31.9867 48.6734 32.4029C48.2026 35.0223 46.1259 37.2861 43.2473 37.629C39.7025 38.0509 36.033 38.307 32.2961 38.4427L33.7516 44.6682H38.3709C39.8504 44.6682 41.0498 45.8677 41.0498 47.3472C41.0498 48.8267 39.8504 50.0261 38.3709 50.0261H11.6358C10.1563 50.0261 8.95685 48.8267 8.95685 47.3472C8.95685 45.8677 10.1563 44.6682 11.6358 44.6682H16.2551L17.7106 38.4427C13.971 38.307 10.2981 38.0509 6.75279 37.629C3.8742 37.2861 1.79735 35.0223 1.32672 32.4029C1.25196 31.9868 1.17439 31.574 1.09597 31.1567C0.5671 28.3422 0 25.3242 0 19.7298C0 13.1915 0.280045 10.248 1.19298 6.46775C1.78786 4.00444 3.84731 2.18472 6.34198 1.86871ZM28.385 9.57504C29.5547 9.96492 30.1868 11.2292 29.7969 12.3989L24.439 28.4726C24.0491 29.6423 22.7848 30.2744 21.6151 29.8845C20.4454 29.4946 19.8133 28.2304 20.2032 27.0607L25.5611 10.987C25.951 9.81729 27.2153 9.18513 28.385 9.57504ZM17.2416 16.8434C18.1134 15.9716 18.1134 14.5581 17.2416 13.6863C16.3697 12.8144 14.9562 12.8144 14.0844 13.6863L8.72646 19.0442C7.85466 19.916 7.85466 21.3295 8.72646 22.2013L14.0844 27.5592C14.9562 28.4311 16.3697 28.4311 17.2416 27.5592C18.1134 26.6874 18.1134 25.2739 17.2416 24.4021L13.4622 20.6227L17.2416 16.8434ZM35.9148 13.6863C35.043 12.8144 33.6295 12.8144 32.7577 13.6863C31.8858 14.5581 31.8858 15.9716 32.7577 16.8434L36.537 20.6227L32.7577 24.4021C31.8858 25.2739 31.8858 26.6874 32.7577 27.5592C33.6295 28.4311 35.043 28.4311 35.9148 27.5592L41.2727 22.2013C42.1446 21.3295 42.1446 19.916 41.2727 19.0442L35.9148 13.6863Z" fill="#0F051C"/>
</svg>
