<svg width="50" height="51" viewBox="0 0 50 51" fill="none" xmlns="http://www.w3.org/2000/svg">
<path fill-rule="evenodd" clip-rule="evenodd" d="M24.9965 6.24962C18.7224 6.24962 12.6571 6.46958 7.01529 7.18425C6.70882 7.22308 6.4691 7.44429 6.40117 7.72562C5.62924 10.922 5.35791 13.3914 5.35791 19.7299C5.35791 24.8177 5.84737 27.4257 6.36173 30.1664C6.44117 30.5897 6.52126 31.0163 6.60019 31.4556C6.69685 31.9937 7.07933 32.2721 7.38623 32.3087C12.9351 32.9694 18.8824 33.2102 25.0035 33.2102C31.1245 33.2102 37.065 32.9694 42.614 32.3087C42.9208 32.2721 43.3033 31.9937 43.3998 31.4556C43.4787 31.0163 43.5587 30.5897 43.6384 30.1664C44.1527 27.4257 44.6421 24.8177 44.6421 19.7299C44.6421 13.3914 44.371 10.922 43.5991 7.72562C43.5309 7.44429 43.2912 7.22312 42.9847 7.18429C37.3418 6.46958 31.2708 6.24962 24.9965 6.24962ZM6.34198 1.86883C12.301 1.11397 18.6176 0.891724 24.9965 0.891724C31.3755 0.891724 37.6975 1.11397 43.658 1.86886C46.1527 2.18481 48.2122 4.00457 48.807 6.46787C49.72 10.2481 50 13.1916 50 19.7299C50 25.3244 49.4331 28.342 48.9041 31.1564C48.8259 31.5738 48.748 31.9868 48.6734 32.4031C48.2026 35.0225 46.1259 37.2863 43.2473 37.6292C39.7025 38.051 36.033 38.3071 32.2961 38.4428L33.7516 44.6684H38.3709C39.8504 44.6684 41.0498 45.8678 41.0498 47.3473C41.0498 48.8268 39.8504 50.0263 38.3709 50.0263H11.6358C10.1563 50.0263 8.95685 48.8268 8.95685 47.3473C8.95685 45.8678 10.1563 44.6684 11.6358 44.6684H16.2551L17.7106 38.4428C13.971 38.3071 10.2981 38.051 6.75279 37.6292C3.8742 37.2863 1.79735 35.0225 1.32672 32.4031C1.25196 31.987 1.17439 31.5741 1.09597 31.1568C0.5671 28.3423 0 25.3244 0 19.7299C0 13.1916 0.280045 10.2481 1.19298 6.46787C1.78786 4.00456 3.84731 2.18484 6.34198 1.86883ZM28.385 9.57516C29.5547 9.96504 30.1868 11.2293 29.7969 12.399L24.439 28.4727C24.0491 29.6424 22.7848 30.2745 21.6151 29.8846C20.4454 29.4948 19.8133 28.2305 20.2032 27.0608L25.5611 10.9871C25.951 9.81741 27.2153 9.18525 28.385 9.57516ZM17.2416 16.8435C18.1134 15.9717 18.1134 14.5582 17.2416 13.6864C16.3697 12.8145 14.9562 12.8145 14.0844 13.6864L8.72646 19.0443C7.85466 19.9161 7.85466 21.3296 8.72646 22.2014L14.0844 27.5593C14.9562 28.4312 16.3697 28.4312 17.2416 27.5593C18.1134 26.6875 18.1134 25.274 17.2416 24.4022L13.4622 20.6229L17.2416 16.8435ZM35.9148 13.6864C35.043 12.8145 33.6295 12.8145 32.7577 13.6864C31.8858 14.5582 31.8858 15.9717 32.7577 16.8435L36.537 20.6229L32.7577 24.4022C31.8858 25.274 31.8858 26.6875 32.7577 27.5593C33.6295 28.4312 35.043 28.4312 35.9148 27.5593L41.2727 22.2014C42.1446 21.3296 42.1446 19.9161 41.2727 19.0443L35.9148 13.6864Z" fill="#0F051C"/>
</svg>
